<?xml version="1.0" encoding="UTF-8" standalone="no"?>
<svg viewBox="0 0 370 370" xmlns="http://www.w3.org/2000/svg" xmlns:xlink="http://www.w3.org/1999/xlink">
<defs>
<linearGradient id="linearGradient3334">
<stop offset="0" stop-color="#fc9f59"/>
<stop offset="1" stop-color="#fc9f59" stop-opacity="0"/>
</linearGradient>
<linearGradient id="linearGradient3364">
<stop offset="0" stop-color="#a1420e"/>
<stop offset="1" stop-color="#a1420e" stop-opacity="0"/>
</linearGradient>
<linearGradient id="linearGradient3404">
<stop offset="0" stop-color="#a1420d"/>
<stop offset="1" stop-color="#a1420d" stop-opacity="0"/>
</linearGradient>
<linearGradient gradientUnits="userSpaceOnUse" id="linearGradient2641" x1="153.4899" x2="233.78314" y1="94.7943" y2="86.97024">
<stop offset="0" stop-color="#f57936"/>
<stop offset="1" stop-color="#f57936" stop-opacity="0"/>
</linearGradient>
<linearGradient gradientUnits="userSpaceOnUse" id="linearGradient2643" x1="161.96481" x2="169.77499" y1="71.49923" y2="34.02615">
<stop offset="0" stop-color="#f3813b"/>
<stop offset="1" stop-color="#f3813b" stop-opacity="0"/>
</linearGradient>
<linearGradient gradientUnits="userSpaceOnUse" id="linearGradient2645" x1="133.18396" x2="137.83479" y1="106.68261" y2="50.83541">
<stop offset="0" stop-color="#f9a465"/>
<stop offset="1" stop-color="#f9a465" stop-opacity="0"/>
</linearGradient>
<linearGradient gradientUnits="userSpaceOnUse" id="linearGradient2647" x1="113.46507" x2="53.13512" y1="129.06564" y2="112.21386">
<stop offset="0" stop-color="#faa668"/>
<stop offset="1" stop-color="#faa668" stop-opacity="0"/>
</linearGradient>
<linearGradient gradientUnits="userSpaceOnUse" id="linearGradient2649" x1="86.78114" x2="48.83513" y1="149.01745" y2="176.10067">
<stop offset="0" stop-color="#f17e39"/>
<stop offset="1" stop-color="#f17e39" stop-opacity="0"/>
</linearGradient>
<linearGradient gradientUnits="userSpaceOnUse" id="linearGradient2651" x1="105.61671" x2="100.82582" y1="158.68261" y2="210.31475">
<stop offset="0" stop-color="#f67a34"/>
<stop offset="1" stop-color="#f67a34" stop-opacity="0"/>
</linearGradient>
<linearGradient gradientUnits="userSpaceOnUse" id="linearGradient2657" x1="353.1914" x2="205.578" y1="256.24535" y2="137.08526">
<stop offset="0" stop-color="#9f410d"/>
<stop offset="1" stop-color="#9f410d" stop-opacity="0"/>
</linearGradient>
<linearGradient gradientUnits="userSpaceOnUse" id="linearGradient2671" x1="6.13333" x2="48.83513" y1="218.23013" y2="179.92867">
<stop offset="0" stop-color="#a3430e"/>
<stop offset="1" stop-color="#a3430e" stop-opacity="0"/>
</linearGradient>
<linearGradient gradientUnits="userSpaceOnUse" id="linearGradient2653" x1="122.79762" x2="164.94412" xlink:href="#linearGradient3334" y1="136.03893" y2="179.97393"/>
<linearGradient gradientUnits="userSpaceOnUse" id="linearGradient2655" x1="152.29648" x2="201.74393" xlink:href="#linearGradient3334" y1="104.78887" y2="136.68688"/>
<linearGradient gradientUnits="userSpaceOnUse" id="linearGradient2659" x1="329.96133" x2="221.53839" xlink:href="#linearGradient3364" y1="89.49865" y2="87.79635"/>
<linearGradient gradientUnits="userSpaceOnUse" id="linearGradient2661" x1="212.81415" x2="190.39731" xlink:href="#linearGradient3364" y1="6.18261" y2="38.8409"/>
<linearGradient gradientUnits="userSpaceOnUse" id="linearGradient2663" x1="89.54835" x2="108.72708" xlink:href="#linearGradient3364" y1="14.64928" y2="43.58816"/>
<linearGradient gradientUnits="userSpaceOnUse" id="linearGradient2665" x1="16.05101" x2="55.0657" xlink:href="#linearGradient3364" y1="94.33984" y2="112.21386"/>
<linearGradient gradientUnits="userSpaceOnUse" id="linearGradient2667" x1="249.78909" x2="152.58874" xlink:href="#linearGradient3404" y1="337.79113" y2="175.22268"/>
<linearGradient gradientUnits="userSpaceOnUse" id="linearGradient2669" x1="111.7782" x2="104.43262" xlink:href="#linearGradient3404" y1="344.28216" y2="217.46178"/>
</defs>
<g transform="matrix(-1,0,0,1,369.17331,0)">
<path d="m482.08138,468.86917a170.62431,170.62431 0 1,1 -341.24863,0 170.62431,170.62431 0 1,1 341.24863,0z" transform="matrix(1.04586,0,0,1.04586,-141.14744,-305.74575)"/>
<path d="m129.41458,119.30762-23.46874,28.90625c57.19807,41.89639 32.86411,187.62654 96.28124,214 44.87296-4.4103 84.89391-25.47031 113.78125-56.90625-57.83074-69.46542-117.64083-135.6012-186.59375-186z" fill="#d65a1e" fill-rule="evenodd"/>
<path d="m163.13333,86.80761-25.28125,25.28126c83.76258,71.00764 136.7573,130.49589 182.34375,187.1875l.75.4375c26.26485-31.0778 42.09375-71.24843 42.09375-115.09375 0-3.54525-.10825-7.06819-.3125-10.5625-31.71554-63.99767-150.86721-43.02-199.59375-87.25001z" fill="#d65a1e" fill-rule="evenodd"/>
<path d="m268.66458,37.74511c-39.81424.39787-90.39617,26.01175-95.31365,40.65625 1.61827,36.76026 170.60402,25.98847 188.37615,86.65626l.25.03125c-5.58583-51.19547-32.84068-95.90897-72.40625-124.75001-6.46122-1.87691-13.54777-2.66728-20.90625-2.59375z" fill="#d65a1e" fill-rule="evenodd"/>
<path d="m184.60208,6.18261c-8.95433,0-17.7735.66237-26.375,1.9375-26.54463,28.7346-12.3796,54.54905 1.875,62.4375 12.16615,8.66382 43.54301-45.58078 122.21875-35.21875-28.07955-18.42636-61.64748-29.15625-97.71875-29.15625z" fill="#d65a1e" fill-rule="evenodd"/>
<path d="m103.25834,158.68262c-1.62659.03156-3.33087.35874-5.125.96875-23.25712,18.24913-65.80117,106.07003-40.9375,149.84375 .00526.00536-.00526.02589 0,.03125 32.392,33.03003 77.52452,53.53126 127.40624,53.53125 1.3716,0 2.72951-.00041 4.09375-.03125-53.73586-38.8351-42.03787-193.6807-85.43749-204.34375z" fill="#d65a1e" fill-rule="evenodd"/>
<path d="m60.32084,136.15137c-19.53608.62007-42.33448,10.8593-53.0625,33.125l-.5625,1.34375c-.35941,4.622-.5625,9.28627-.5625,14 0,44.14546 16.06815,84.55377 42.65625,115.71875-24.60837-77.24897 50.26688-145.16863 42.125-152.71875-5.38163-7.8001-17.22696-11.89301-30.59375-11.46875z" fill="#d65a1e" fill-rule="evenodd"/>
<path d="m54.66459,62.37011c-25.21234,26.78393-42.27986,61.33717-47.125,99.68751 18.96732-31.72102 47.26148-43.23356 93-19.25l23.46874-29.5c-15.32376-13.82622-47.6407-37.69971-69.34374-50.93751z" fill="#d65a1e" fill-rule="evenodd"/>
<path d="m150.50833,9.43261c-34.95701,6.76811-66.28301,23.75735-90.74999,47.71875l.4375.78125c25.73764,11.71893 47.75066,30.92947 70.43749,48.75001l27.0625-25.28126c-17.63286-17.78458-31.23774-37.20217-7.1875-71.96875z" fill="#d65a1e" fill-rule="evenodd"/>
<path d="m268.66458,37.74511c-39.81424.39787-90.39617,26.01175-95.31365,40.65625 1.61827,36.76026 170.60402,25.98847 188.37615,86.65626l.25.03125c-5.58583-51.19547-32.84068-95.90897-72.40625-124.75001-6.46122-1.87691-13.54777-2.66728-20.90625-2.59375z" fill="url(#linearGradient2641)" fill-rule="evenodd"/>
<path d="m184.60208,6.18261c-8.95433,0-17.7735.66237-26.375,1.9375-26.54463,28.7346-12.3796,54.54905 1.875,62.4375 12.16615,8.66382 43.54301-45.58078 122.21875-35.21875-28.07955-18.42636-61.64748-29.15625-97.71875-29.15625z" fill="url(#linearGradient2643)" fill-rule="evenodd"/>
<path d="m150.50833,9.43261c-34.95701,6.76811-66.28301,23.75735-90.74999,47.71875l.4375.78125c25.73764,11.71893 47.75066,30.92947 70.43749,48.75001l27.0625-25.28126c-17.63286-17.78458-31.23774-37.20217-7.1875-71.96875z" fill="url(#linearGradient2645)" fill-rule="evenodd"/>
<path d="m54.66459,62.37011c-25.21234,26.78393-42.27986,61.33717-47.125,99.68751 18.96732-31.72102 47.26148-43.23356 93-19.25l23.46874-29.5c-15.32376-13.82622-47.6407-37.69971-69.34374-50.93751z" fill="url(#linearGradient2647)" fill-rule="evenodd"/>
<path d="m60.32084,136.15137c-19.53608.62007-42.33448,10.8593-53.0625,33.125l-.5625,1.34375c-.35941,4.622-.5625,9.28627-.5625,14 0,44.14546 16.06815,84.55377 42.65625,115.71875-24.60837-77.24897 50.26688-145.16863 42.125-152.71875-5.38163-7.8001-17.22696-11.89301-30.59375-11.46875z" fill="url(#linearGradient2649)" fill-rule="evenodd"/>
<path d="m103.25834,158.68262c-1.62659.03156-3.33087.35874-5.125.96875-23.25712,18.24913-65.80117,106.07003-40.9375,149.84375 .00526.00536-.00526.02589 0,.03125 32.392,33.03003 77.52452,53.53126 127.40624,53.53125 1.3716,0 2.72951-.00041 4.09375-.03125-53.73586-38.8351-42.03787-193.6807-85.43749-204.34375z" fill="url(#linearGradient2651)" fill-rule="evenodd"/>
<path d="m129.41458,119.30762-23.46874,28.90625c57.19807,41.89639 32.86411,187.62654 96.28124,214 44.87296-4.4103 84.89391-25.47031 113.78125-56.90625-57.83074-69.46542-117.64083-135.6012-186.59375-186z" fill="url(#linearGradient2653)" fill-rule="evenodd"/>
<path d="m163.13333,86.80761-25.28125,25.28126c83.76258,71.00764 136.7573,130.49589 182.34375,187.1875l.75.4375c26.26485-31.0778 42.09375-71.24843 42.09375-115.09375 0-3.54525-.10825-7.06819-.3125-10.5625-31.71554-63.99767-150.86721-43.02-199.59375-87.25001z" fill="url(#linearGradient2655)" fill-rule="evenodd"/>
<path d="m163.13333,86.80761-25.28125,25.28126c83.76258,71.00764 136.7573,130.49589 182.34375,187.1875l.75.4375c26.26485-31.0778 42.09375-71.24843 42.09375-115.09375 0-3.54525-.10825-7.06819-.3125-10.5625-31.71554-63.99767-150.86721-43.02-199.59375-87.25001z" fill="url(#linearGradient2657)" fill-rule="evenodd"/>
<path d="m268.66458,37.74511c-39.81424.39787-90.39617,26.01175-95.31365,40.65625 1.61827,36.76026 170.60402,25.98847 188.37615,86.65626l.25.03125c-5.58583-51.19547-32.84068-95.90897-72.40625-124.75001-6.46122-1.87691-13.54777-2.66728-20.90625-2.59375z" fill="url(#linearGradient2659)" fill-rule="evenodd"/>
<path d="m184.60208,6.18261c-8.95433,0-17.7735.66237-26.375,1.9375-26.54463,28.7346-12.3796,54.54905 1.875,62.4375 12.16615,8.66382 43.54301-45.58078 122.21875-35.21875-28.07955-18.42636-61.64748-29.15625-97.71875-29.15625z" fill="url(#linearGradient2661)" fill-rule="evenodd"/>
<path d="m150.50833,9.43261c-34.95701,6.76811-66.28301,23.75735-90.74999,47.71875l.4375.78125c25.73764,11.71893 47.75066,30.92947 70.43749,48.75001l27.0625-25.28126c-17.63286-17.78458-31.23774-37.20217-7.1875-71.96875z" fill="url(#linearGradient2663)" fill-rule="evenodd"/>
<path d="m54.66459,62.37011c-25.21234,26.78393-42.27986,61.33717-47.125,99.68751 18.96732-31.72102 47.26148-43.23356 93-19.25l23.46874-29.5c-15.32376-13.82622-47.6407-37.69971-69.34374-50.93751z" fill="url(#linearGradient2665)" fill-rule="evenodd"/>
<path d="m129.41458,119.30762-23.46874,28.90625c57.19807,41.89639 32.86411,187.62654 96.28124,214 44.87296-4.4103 84.89391-25.47031 113.78125-56.90625-57.83074-69.46542-117.64083-135.6012-186.59375-186z" fill="url(#linearGradient2667)" fill-rule="evenodd"/>
<path d="m103.25834,158.68262c-1.62659.03156-3.33087.35874-5.125.96875-23.25712,18.24913-65.80117,106.07003-40.9375,149.84375 .00526.00536-.00526.02589 0,.03125 32.392,33.03003 77.52452,53.53126 127.40624,53.53125 1.3716,0 2.72951-.00041 4.09375-.03125-53.73586-38.8351-42.03787-193.6807-85.43749-204.34375z" fill="url(#linearGradient2669)" fill-rule="evenodd"/>
<path d="m60.32084,136.15137c-19.53608.62007-42.33448,10.8593-53.0625,33.125l-.5625,1.34375c-.35941,4.622-.5625,9.28627-.5625,14 0,44.14546 16.06815,84.55377 42.65625,115.71875-24.60837-77.24897 50.26688-145.16863 42.125-152.71875-5.38163-7.8001-17.22696-11.89301-30.59375-11.46875z" fill="url(#linearGradient2671)" fill-rule="evenodd"/>
</g>
</svg>
