<?xml version="1.0" encoding="UTF-8" standalone="no"?>
<svg id="svg2" xmlns:rdf="http://www.w3.org/1999/02/22-rdf-syntax-ns#" xmlns="http://www.w3.org/2000/svg" height="100%" width="100%" version="1.1" xmlns:cc="http://creativecommons.org/ns#" xmlns:dc="http://purl.org/dc/elements/1.1/" viewBox="0 0 744.09448819 1052.3622047">
 <metadata id="metadata83">
  <rdf:RDF>
   <cc:Work rdf:about="">
    <dc:format>image/svg+xml</dc:format>
    <dc:type rdf:resource="http://purl.org/dc/dcmitype/StillImage"/>
    <dc:title>Cartoon Kids</dc:title>
   </cc:Work>
  </rdf:RDF>
 </metadata>
 <defs id="defs4">
  <filter id="filter3916" y="-.36863" width="1.35583" x="-.17792" height="1.73726">
   <feGaussianBlur id="feGaussianBlur7" stdDeviation="1.7946"/>
  </filter>
 </defs>
 <title id="title9">Cartoon Kids</title>
 <path id="path11" stroke="#000" d="m245.46,231.36,9.6892,72.346,19.378-8.3973,6.4595,36.819,20.024-23.9,5.1676,29.068,28.422-41.341-67.825-77.514z" fill="#1a1a1a"/>
 <path id="path13" stroke="#000" d="m452.81,303.71v35.527l18.087-21.962,23.254,21.962v-34.235l31.006,13.565-11.627-74.284z" fill="#1a1a1a"/>
 <path id="path15" stroke="#000" d="m267.36,193.56s-29.223-29.35-35.846-13.051c-3.5556,8.7496-7.7933,38.177,0.20821,43.195,13.139,8.2392,38.287,8.3,38.287,8.3s14.965,51.869,43.246,71.419c18.953,14.682,53.159,32.779,74.96,35.534,2.877,0.33098-1.5841,59.953,1.2104,60.098,13.266,18.326,18.967,12.726,25.553-3.628,2.496-0.30568,2.6114-56.918,4.8915-57.488,36.708-9.1754,57.045-25.91,77.044-58.03,8.7238-14.011,12.005-27.246,12.005-27.246s15.261-3.9269,24.976-14.889c5.2808-5.9587,15.415-34.32,3.016-39.684-11.525-4.9858-27.678,14.276-27.678,14.276s-15.849-65.221-33.811-75.962c-22.789-13.628-52.272-12.649-78.806-11.627-38.833,1.4957-82.332,2.8789-113.69,25.838-11.68,8.5521-15.568,42.946-15.568,42.946z" fill="#f95"/>
 <path id="path17" d="m402.86,230.66a39.281,39.281,0,1,1,-78.562,0,39.281,39.281,0,1,1,78.562,0z" stroke-dashoffset="5.3" transform="matrix(.81629,0,0,.81629,135.48389,15.06622)" stroke="#000" stroke-linecap="square" fill="#ccc"/>
 <path id="path19" stroke="#000" d="m503.84,225.55,20.67-32.297,27.776,19.378s3.231-11.608-10.335-36.173c-5.8085-10.518-24.546-25.838-24.546-25.838l19.378-23.9-21.316,7.1054-3.2297-21.316-10.981,14.857s-37.816-20.461-60.073-27.13c-29.978-8.9827-63.027-12.852-93.663-6.4595-28.282,5.902-53.512,23.042-76.868,40.049-49.701,36.19-33.589,54.906-33.589,54.906l11.627-9.0433-1.2919,16.795,14.211-10.981-1.9378,23.9,41.987-51.676-9.0433,66.533,13.565-63.303-3.2297,42.633s25.775-40.764,46.508-50.384c17.986-8.3451,39.68-4.3716,59.427-2.5838,17.375,1.573,51.03,11.627,51.03,11.627l-11.627,19.378,18.733-13.565-1.9378,21.962,17.441-12.273,0.64595,30.36,11.627-14.857z" fill="#1a1a1a"/>
 <path id="path21" stroke="#000" d="m242.23,186.15s-4.6937,12.856-3.8757,16.795c1.183,5.696,9.0433,9.0433,9.0433,9.0433" fill="none"/>
 <path id="path23" stroke="#000" d="m527.74,210.69h7.1054s-1.6995,13.469-6.4595,17.441l-11.627,9.6892,5.1676-20.67" fill="none"/>
 <path id="path25" stroke="#000" d="m203.8,691.6-7.7514,13.565s9.9772,12.276,16.149,17.118c10.128,7.946,21.746,14.011,33.589,19.055,17.361,7.3946,54.26,16.149,54.26,16.149l33.266,0.64594,26.301-12.469-1.1352-15.134z" fill="#ccc"/>
 <path id="path27" stroke="#000" d="m317.16,689.34s-21.938-23.265-40.049-29.068c-7.203-2.3077-24.147-2.8814-31.651-1.9378-9.7292,1.2232-20.281,3.3663-27.776,9.6892-7.1452,6.028-13.565,24.546-13.565,24.546s15.277,15.332,24.546,20.67c17.647,10.163,34.141,17.942,53.614,23.9,13.383,4.095,30.605,8.0271,44.57,7.1054,9.256-0.61084,31.547-12.847,31.547-12.847l5.3568-29.368z" fill="#3a0000"/>
 <path id="path29" d="m370.77,680.3a28.745,18.087,0,1,1,-57.489,0,28.745,18.087,0,1,1,57.489,0z" stroke-dashoffset="5.3" transform="translate(0,12)" stroke="#000" stroke-linecap="square" fill="#fff"/>
 <path id="path31" stroke="#000" d="m367.54,622.81-9.4676,72.634s-12.464,2.6863-17.653,0.95942c-5.9334-1.9747-15.141-7.9473-15.141-7.9473l15.196-82.597z" fill="#f95"/>
 <path id="path33" stroke="#000" d="m504.48,774.78-0.89261,15.598s-15.055,4.8558-22.868,5.5528c-12.822,1.1437-25.869-0.10212-38.548-2.3264-18.587-3.2606-54.296-16.028-54.296-16.028s-20.191-9.2161-26.63-15.003-8.9342-3.3407-12.352-17.682l7.6623-17.806z" fill="#ccc"/>
 <path id="path35" stroke="#000" d="m409.74,707.46s31.986-3.8986,50.334,1.1054c7.2972,1.9902,21.817,10.742,27.595,15.623,7.4911,6.3274,15.171,13.874,18.009,23.26,2.7063,8.948-2.0021,27.973-2.0021,27.973s-21.164,4.5307-31.845,3.9557c-20.335-1.0948-38.403-3.5607-57.978-9.1762-13.453-3.8594-30.036-9.9473-41.243-18.33-7.4281-5.5561-18.62-18.759-18.62-18.759l10.682-36.748z" fill="#3a0000"/>
 <path id="path37" d="m417.28,683.85a25.192,16.472,0,1,1,-50.384,0,25.192,16.472,0,1,1,50.384,0z" stroke-dashoffset="5.3" transform="translate(-4.11079,17.35667)" stroke="#000" stroke-linecap="square" fill="#fff"/>
 <path id="path39" stroke="#000" d="m383.54,624.37-14.628,73.28s9.7088,6.0662,15.101,6.9459c5.047,0.82337,15.33-1.9608,15.33-1.9608l8.5675-75.303z" fill="#f95"/>
 <path id="path41" stroke="#000" d="m294.55,525.27-20.67,64.595,94.308,41.341,15.503-28.422-3.2298,31.006,79.452,5.1676,5.1676-90.433z" fill="#004300"/>
 <path id="path43" stroke="#000" d="m289.13,507.45-9.5918,13.08s25.434,15.581,37.163,20.009c24.872,9.3904,47.164,19.675,73.371,21.265,23.299,1.4134,55.627-2.0296,77.192-10.962,7.6243-3.1581,13.813-14.404,13.813-14.404l-4.3784-7.5202z" fill="#520"/>
 <path id="path45" stroke="#000" d="m165.09,281.03,17.581-0.95858s3.7169-5.9692-1.4238-21.816c-4.3736-13.483-13.24-3.9861-13.24-3.9861l-12.89,12.87-0.93693-22.434s1.3406-14.446-16.181-9.6633c-12.636,3.4491-2.6408,16.738-2.6408,16.738l6.1409,18.57-21.578-12.295s-9.5478-0.0891-11.785,10.278c-1.8294,8.4763,6.1881,14.542,6.1881,14.542l23.065,0.36608-28.69,5.6055s-12.073-0.2362-9.7199,11.669c1.8284,9.2487,14.918,6.083,14.918,6.083l20.117-9.0122-12.203,19.127s-1.1623,3.5283,5.7137,7.3372c8.7097,4.8246,9.6878-0.96862,9.6878-0.96862l6.365-9.4591,6.6474-8.9488,122.82,78.286,10.204-27.829z" fill="#f95"/>
 <path id="path47" stroke="#000" d="m280.34,334.58,90.433,40.049c8.7035,3.8544,17.823,7.1473,27.332,7.5876s18.922-1.6714,28.22-3.7119c24.704-5.4216,49.745-9.3072,74.93-11.627l-2.5838,85.265-63.303-24.546,48.446,102.71c-49.627,24.619-110.27,25.837-160.84,3.2297-13.788-6.163-26.831-13.989-38.757-23.254l81.389-93.017-105.94-15.503,20.67-67.179" fill="#bcaa00"/>
 <path id="path49" stroke="#000" d="m282.73,332.52-21.924,71.939s-2.7119,2.1304-4.3392,2.2838c-2.853,0.26887-15.986-5.0243-15.986-5.0243s8.3357-7.421,10.505-11.99c9.5252-20.058,20.782-64.517,20.782-64.517s7.1271,3.341,9.1351,4.7959c0.83846,0.60752,1.827,2.5122,1.827,2.5122z" fill="#5c0080"/>
 <path id="path51" stroke="#000" d="m501.52,389.15,63.946-2.7405-51.221,108.86,22.238,2.3162s20.415-0.59017,17.689,15.419c-1.1318,6.646-11.073,8.7108-11.073,8.7108l-21.481-3.7649,18.094,8.2675s15.219,12.408,8.4891,22.303c-4.2218,6.2071-19.627-0.64595-19.627-0.64595l-14.108-10.74,2.1405,12.659s-1.7734,7.2753-4.9459,9.9378c-6.3762,5.3513-16.932-3.5432-16.932-3.5432s-15.151-15.17-12.503-42.916c3.4171-13.541,31.927-72.688,52.357-103.94l-36.716,3.2297c1.1662-9.7543,2.0388-13.727,3.654-23.419z" fill="#f95"/>
 <path id="path53" stroke="#000" stroke-width="1.07598" d="m495.7,367.85-3.1386,87.01s1.854,3.3354,3.3393,4.1023c2.604,1.3445,16.755,0.3668,16.755,0.3668s-5.4098-11.21-5.9441-17.022c-2.3459-25.515,1.7574-78.445,1.7574-78.445s-7.8345,1.0448-10.212,1.9028c-0.99273,0.35826-2.5569,2.0848-2.5569,2.0848z" fill="#5c0080"/>
 <path id="path55" d="m402.86,230.66a39.281,39.281,0,1,1,-78.562,0,39.281,39.281,0,1,1,78.562,0z" stroke-dashoffset="5.3" transform="matrix(.81629,0,0,.81629,47.94064,13.06622)" stroke="#000" stroke-linecap="square" fill="#ccc"/>
 <path id="path57" stroke="#000" d="m344.85,201.89s2.9116-10.192,10.962-9.5918c7.7522,0.57793,9.5918,12.789,9.5918,12.789" fill="none"/>
 <path id="path59" stroke="#000" d="m432.85,207.89s2.9116-10.192,10.962-9.5918c7.7522,0.57793,9.5918,12.789,9.5918,12.789" fill="none"/>
 <path id="path61" stroke="#000" d="m365.17,249.83s-17.998-11.873-2.348-25.992c5.7717-5.2074,22.918,11.946,22.918,11.946" fill="#f95"/>
 <path id="path63" stroke="#000" d="m365.87,294.66s17.56,8.6301,24.384,8.5904c7.6352-0.0443,21.98-8.1844,21.98-8.1844" fill="none"/>
 <path id="path65" stroke="#000" d="m322.52,264.19s22.725,24.141,37.855,29.043c20.865,6.7602,44.978,5.1452,65.773-1.827,16.663-5.587,42.935-30.603,42.935-30.603" fill="none"/>
 <path id="path67" stroke="#000" d="m462.24,257.61s3.758,2.6477,5.9378,3.1973c3.6908,0.93051,11.419,0,11.419,0" fill="none"/>
 <path id="path69" stroke="#000" d="m312.88,265.37s7.7243,0.38639,10.505-1.827c2.4559-1.9546,3.654-8.6783,3.654-8.6783" fill="none"/>
 <path id="path71" filter="url(#filter3916)" opacity=".5" d="m441.45,712.08s14.217-2.3246,19.64,1.3703c2.9267,1.9938,4.5675,9.5918,4.5675,9.5918z" fill="#ccc"/>
 <path id="path73" filter="url(#filter3916)" opacity=".5" d="m259.45,666.08s14.217-2.3246,19.64,1.3703c2.9267,1.9938,4.5675,9.5918,4.5675,9.5918z" fill="#ccc"/>
 <path id="path75" d="m423.27,462.86c0.0774,2.0059-0.60636,2.9806-1.2247,4.7041l-1.1121,0.53385c-0.90907,1.7053,0.0903,1.0826-0.56078,2.4384-1.4208,1.218-4.3056,3.81-5.2293,4.0474-0.67517-0.0141,0.45673-0.76881,0.60465-1.0635-1.8999,1.2586-1.525,1.8896-4.4312,2.6559l-0.0843-0.18349c-7.1645,3.2545-17.117-3.1939-16.987-11.991-0.0756,0.55792-0.21762,0.41844-0.37581,0.6426-0.36986-4.5256,2.1657-9.0712,6.4419-10.93,4.1826-1.9976,9.0859-1.1789,12.08,1.5185-1.6445-2.0806-4.9206-4.2865-8.8004-4.0823-3.8024,0.0598-7.3605,2.3919-8.5474,4.925-1.9472,1.1831-2.1743,4.563-3.0223,5.1824-1.143,8.1031,2.1476,11.603,7.7149,15.721,0.87383,0.56954,0.24596,0.65672,0.36295,1.0901-1.8492-0.83522-3.5418-2.0972-4.9351-3.6423,0.73966,1.0436,1.537,2.0582,2.5682,2.8552-1.7451-0.5687-4.0751-4.079-4.7537-4.2218,3.006,5.1956,12.194,9.1119,17.008,7.1683-2.2276,0.0797-5.0564,0.044-7.5575-0.8485-1.0536-0.52222-2.4805-1.6024-2.225-1.8041,6.5676,2.367,13.35,1.7917,19.032-2.6045,1.4466-1.0876,3.0257-2.9366,3.4825-2.9615-0.68721,0.99796,0.11782,0.47989-0.41031,1.3608,1.4381-2.2425-0.62697-0.91325,1.488-3.8722l0.78092,1.0378c-0.29244-1.8631,2.3954-4.123,2.1218-7.067,0.6167-0.89998,0.68721,0.96972,0.0336,3.0403,0.90743-2.2973,0.24-2.6667,0.4722-4.563,0.25027,0.63762,0.58316,1.3143,0.75258,1.9876-0.59172-2.2209,0.60465-3.7386,0.90222-5.0296-0.29414-0.12453-0.91255,0.98135-1.0554-1.6406,0.0212-1.1391,0.32947-0.59694,0.44728-0.87756-0.23048-0.12869-0.83856-1.0021-1.2075-2.6767,0.26574-0.39436,0.71555,1.0204,1.0803,1.0776-0.23488-1.3309-0.6382-2.3463-0.65545-3.3683-1.0664-2.1503-0.37753,0.28727-1.2411-0.92322-1.1353-3.4156,0.9409-0.79288,1.082-2.3438,1.7185,2.4035,2.698,6.1313,3.1496,7.6747-0.34405-1.8822-0.89881-3.7062-1.5774-5.4705,0.52374,0.21338-0.84205-3.8714,0.6803-1.1665-1.6247-5.766-6.9478-11.154-11.846-13.682,0.59774,0.52885,1.3538,1.193,1.0837,1.2977-2.4375-1.399-2.0092-1.5094-2.3584-2.1005-1.9825-0.77959-2.115,0.064-3.4265,0.002-3.7414-1.9162-4.4621-1.7128-7.905-2.9116l0.15656,0.70736c-2.4779-0.79703-2.8873,0.30055-5.5648,0.002-0.1625-0.12204,0.85842-0.44501,1.6996-0.56208-2.3962,0.30553-2.2844-0.45662-4.629,0.0839,0.57713-0.39104,1.1895-0.6509,1.8053-0.983-1.9533,0.11457-4.6651,1.0976-3.8282,0.20258-3.1866,1.3732-8.8468,3.3002-12.023,6.1753l-0.0997-0.64426c-1.4553,1.6862-6.3466,5.0362-6.7362,7.2223l-0.38964,0.0872c-0.75601,1.2379-1.2471,2.6402-1.8474,3.9129-0.98998,1.6298-1.4518,0.62766-1.3108,0.88338-1.9481,3.8125-2.9174,7.0155-3.7525,9.6441,0.59514,0.85929,0.0143,5.1741,0.23911,8.627-0.97704,17.056,12.401,33.616,27.024,37.438,2.1433,0.7414,5.3299,0.71485,8.0409,0.7879-3.1978-0.88336-3.6106-0.46744-6.7275-1.516-2.2474-1.0228-2.7394-2.1893-4.3322-3.5235l0.63046,1.0752c-3.1221-1.0669-1.8156-1.3201-4.3563-2.0964l0.67339-0.84768c-1.0123-0.0747-2.6809-1.6455-3.1367-2.5181l-1.1078,0.0423c-1.3297-1.5824-2.0392-2.7257-1.9867-3.6116l-0.35781,0.61605c-0.40511-0.67167-4.8947-5.9429-2.5656-4.7158-0.43264-0.38025-1.0081-0.62019-1.6316-1.7153l0.47391-0.52222c-1.119-1.3923-2.0624-3.1765-1.9902-3.771,0.59775,0.77877,1.0123,0.92489,1.4234,1.0586-2.8305-6.7781-2.9897-0.37278-5.1321-6.8993l0.45241-0.0349c-0.34666-0.50727-0.55907-1.0544-0.83774-1.5932l0.19783-1.8971c-2.0367-2.2715-0.56941-9.6681-0.27436-13.724,0.20207-1.6489,1.7003-3.4048,2.8382-6.1587l-0.69324-0.11457c1.3262-2.2317,7.5704-8.9658,10.464-8.6204,1.4011-1.6987-0.27867-0.007-0.55304-0.43338,3.0782-3.0744,4.0458-2.1719,6.1229-2.7257,2.2388-1.2827-1.9222,0.50146-0.86087-0.48901,3.8729-0.95395,2.7436-2.1702,7.7949-2.6543,0.53326,0.29224-1.236,0.45165-1.6797,0.83107,3.2253-1.5243,10.208-1.1764,14.746,0.84519,5.2611,2.3753,11.176,9.3933,11.41,15.996l0.26573,0.0689c-0.13416,2.6252,0.41634,5.6614-0.53921,8.4494l0.64587-1.3209" fill="#c30700"/>
</svg>
