<?xml version="1.0" encoding="UTF-8" standalone="no"?>
<svg viewBox="0 0 1448.125 592.32367" xmlns="http://www.w3.org/2000/svg">
<g transform="translate(-96.12723,-135.21932)">
<g fill="#e6e6e6" transform="translate(11.92393)">
<g fill="#e6e6e6">
<path d="m354.28571,212.36218c0,42.60483-34.53803,77.14286-77.14286,77.14286s-77.14286-34.53803-77.14286-77.14286 34.53804-77.14286 77.14286-77.14286 77.14286,34.53804 77.14286,77.14286z" fill="#e6e6e6"/>
<path d="m277.12723,294.46229c-93.9975,0-171.33183,71.22361-181,162.65625h34.8125c9.48663-72.29381 71.30145-128.09375 146.1875-128.09375s136.72786,55.79994 146.21875,128.09375h34.8125c-9.67172-91.43264-87.03375-162.65625-181.03125-162.65625z" fill="#e6e6e6"/>
<path d="m277.14285,292.28125c-59.20404,0-107.1875,85.74932-107.1875,191.5 0,3.96126.0548,7.87964.1875,11.78125h214c.13275-3.90161.1875-7.81999.1875-11.78125 0-105.75068-47.98346-191.5-107.1875-191.5z" fill="#e6e6e6"/>
<g fill="#e6e6e6" transform="translate(-9.32525)">
<path d="m226.84958,485.53394h38.62913v242.00908h-38.62913z" fill="#e6e6e6"/>
<path d="m307.45749,485.53394h38.62913v242.00908h-38.62913z" fill="#e6e6e6"/>
</g>
</g>
<g fill="#e6e6e6">
<g fill="#e6e6e6" transform="translate(362.03125)">
<path d="m354.28571,212.36218c0,42.60483-34.53803,77.14286-77.14286,77.14286s-77.14286-34.53803-77.14286-77.14286 34.53804-77.14286 77.14286-77.14286 77.14286,34.53804 77.14286,77.14286z" fill="#e6e6e6"/>
<path d="m277.12723,294.46229c-93.9975,0-171.33183,71.22361-181,162.65625h34.8125c9.48663-72.29381 71.30145-128.09375 146.1875-128.09375s136.72786,55.79994 146.21875,128.09375h34.8125c-9.67172-91.43264-87.03375-162.65625-181.03125-162.65625z" fill="#e6e6e6"/>
<path d="m277.14285,292.28125c-59.20404,0-107.1875,85.74932-107.1875,191.5 0,3.96126.0548,7.87964.1875,11.78125h214c.13275-3.90161.1875-7.81999.1875-11.78125 0-105.75068-47.98346-191.5-107.1875-191.5z" fill="#e6e6e6"/>
<g fill="#e6e6e6" transform="translate(-9.32525)">
<path d="m226.84958,485.53394h38.62913v242.00908h-38.62913z" fill="#e6e6e6"/>
<path d="m307.45749,485.53394h38.62913v242.00908h-38.62913z" fill="#e6e6e6"/>
</g>
</g>
<g fill="#e6e6e6" transform="translate(724.0625)">
<path d="m354.28571,212.36218c0,42.60483-34.53803,77.14286-77.14286,77.14286s-77.14286-34.53803-77.14286-77.14286 34.53804-77.14286 77.14286-77.14286 77.14286,34.53804 77.14286,77.14286z" fill="#e6e6e6"/>
<path d="m277.12723,294.46229c-93.9975,0-171.33183,71.22361-181,162.65625h34.8125c9.48663-72.29381 71.30145-128.09375 146.1875-128.09375s136.72786,55.79994 146.21875,128.09375h34.8125c-9.67172-91.43264-87.03375-162.65625-181.03125-162.65625z" fill="#e6e6e6"/>
<path d="m277.14285,292.28125c-59.20404,0-107.1875,85.74932-107.1875,191.5 0,3.96126.0548,7.87964.1875,11.78125h214c.13275-3.90161.1875-7.81999.1875-11.78125 0-105.75068-47.98346-191.5-107.1875-191.5z" fill="#e6e6e6"/>
<g fill="#e6e6e6" transform="translate(-9.32525)">
<path d="m226.84958,485.53394h38.62913v242.00908h-38.62913z" fill="#e6e6e6"/>
<path d="m307.45749,485.53394h38.62913v242.00908h-38.62913z" fill="#e6e6e6"/>
</g>
</g>
<g fill="#e6e6e6" transform="translate(1086.0938)">
<path d="m354.28571,212.36218c0,42.60483-34.53803,77.14286-77.14286,77.14286s-77.14286-34.53803-77.14286-77.14286 34.53804-77.14286 77.14286-77.14286 77.14286,34.53804 77.14286,77.14286z" fill="#e6e6e6"/>
<path d="m277.12723,294.46229c-93.9975,0-171.33183,71.22361-181,162.65625h34.8125c9.48663-72.29381 71.30145-128.09375 146.1875-128.09375s136.72786,55.79994 146.21875,128.09375h34.8125c-9.67172-91.43264-87.03375-162.65625-181.03125-162.65625z" fill="#e6e6e6"/>
<path d="m277.14285,292.28125c-59.20404,0-107.1875,85.74932-107.1875,191.5 0,3.96126.0548,7.87964.1875,11.78125h214c.13275-3.90161.1875-7.81999.1875-11.78125 0-105.75068-47.98346-191.5-107.1875-191.5z" fill="#e6e6e6"/>
<g fill="#e6e6e6" transform="translate(-9.32525)">
<path d="m226.84958,485.53394h38.62913v242.00908h-38.62913z" fill="#e6e6e6"/>
<path d="m307.45749,485.53394h38.62913v242.00908h-38.62913z" fill="#e6e6e6"/>
</g>
</g>
</g>
</g>
<path d="m354.28571,212.36218c0,42.60483-34.53803,77.14286-77.14286,77.14286s-77.14286-34.53803-77.14286-77.14286 34.53804-77.14286 77.14286-77.14286 77.14286,34.53804 77.14286,77.14286z" fill="#d44117"/>
<path d="m277.12723,294.46229c-93.9975,0-171.33183,71.22361-181,162.65625h34.8125c9.48663-72.29381 71.30145-128.09375 146.1875-128.09375s136.72786,55.79994 146.21875,128.09375h34.8125c-9.67172-91.43264-87.03375-162.65625-181.03125-162.65625z" fill="#d44117"/>
<path d="m277.14285,292.28125c-59.20404,0-107.1875,85.74932-107.1875,191.5 0,3.96126.0548,7.87964.1875,11.78125h214c.13275-3.90161.1875-7.81999.1875-11.78125 0-105.75068-47.98346-191.5-107.1875-191.5z" fill="#d44117"/>
<g fill="#d44117" transform="translate(-9.32525)">
<path d="m226.84958,485.53394h38.62913v242.00908h-38.62913z" fill="#d44117"/>
<path d="m307.45749,485.53394h38.62913v242.00908h-38.62913z" fill="#d44117"/>
</g>
<g fill="#f2a438" transform="translate(362.03125)">
<path d="m354.28571,212.36218c0,42.60483-34.53803,77.14286-77.14286,77.14286s-77.14286-34.53803-77.14286-77.14286 34.53804-77.14286 77.14286-77.14286 77.14286,34.53804 77.14286,77.14286z" fill="#f2a438"/>
<path d="m277.12723,294.46229c-93.9975,0-171.33183,71.22361-181,162.65625h34.8125c9.48663-72.29381 71.30145-128.09375 146.1875-128.09375s136.72786,55.79994 146.21875,128.09375h34.8125c-9.67172-91.43264-87.03375-162.65625-181.03125-162.65625z" fill="#f2a438"/>
<path d="m277.14285,292.28125c-59.20404,0-107.1875,85.74932-107.1875,191.5 0,3.96126.0548,7.87964.1875,11.78125h214c.13275-3.90161.1875-7.81999.1875-11.78125 0-105.75068-47.98346-191.5-107.1875-191.5z" fill="#f2a438"/>
<g fill="#f2a438" transform="translate(-9.32525)">
<path d="m226.84958,485.53394h38.62913v242.00908h-38.62913z" fill="#f2a438"/>
<path d="m307.45749,485.53394h38.62913v242.00908h-38.62913z" fill="#f2a438"/>
</g>
</g>
<g fill="#6bb427" transform="translate(724.0625)">
<path d="m354.28571,212.36218c0,42.60483-34.53803,77.14286-77.14286,77.14286s-77.14286-34.53803-77.14286-77.14286 34.53804-77.14286 77.14286-77.14286 77.14286,34.53804 77.14286,77.14286z" fill="#6bb427"/>
<path d="m277.12723,294.46229c-93.9975,0-171.33183,71.22361-181,162.65625h34.8125c9.48663-72.29381 71.30145-128.09375 146.1875-128.09375s136.72786,55.79994 146.21875,128.09375h34.8125c-9.67172-91.43264-87.03375-162.65625-181.03125-162.65625z" fill="#6bb427"/>
<path d="m277.14285,292.28125c-59.20404,0-107.1875,85.74932-107.1875,191.5 0,3.96126.0548,7.87964.1875,11.78125h214c.13275-3.90161.1875-7.81999.1875-11.78125 0-105.75068-47.98346-191.5-107.1875-191.5z" fill="#6bb427"/>
<g fill="#6bb427" transform="translate(-9.32525)">
<path d="m226.84958,485.53394h38.62913v242.00908h-38.62913z" fill="#6bb427"/>
<path d="m307.45749,485.53394h38.62913v242.00908h-38.62913z" fill="#6bb427"/>
</g>
</g>
<g fill="#5775b1" transform="translate(1086.0938)">
<path d="m354.28571,212.36218c0,42.60483-34.53803,77.14286-77.14286,77.14286s-77.14286-34.53803-77.14286-77.14286 34.53804-77.14286 77.14286-77.14286 77.14286,34.53804 77.14286,77.14286z" fill="#5775b1"/>
<path d="m277.12723,294.46229c-93.9975,0-171.33183,71.22361-181,162.65625h34.8125c9.48663-72.29381 71.30145-128.09375 146.1875-128.09375s136.72786,55.79994 146.21875,128.09375h34.8125c-9.67172-91.43264-87.03375-162.65625-181.03125-162.65625z" fill="#5775b1"/>
<path d="m277.14285,292.28125c-59.20404,0-107.1875,85.74932-107.1875,191.5 0,3.96126.0548,7.87964.1875,11.78125h214c.13275-3.90161.1875-7.81999.1875-11.78125 0-105.75068-47.98346-191.5-107.1875-191.5z" fill="#5775b1"/>
<g fill="#5775b1" transform="translate(-9.32525)">
<path d="m226.84958,485.53394h38.62913v242.00908h-38.62913z" fill="#5775b1"/>
<path d="m307.45749,485.53394h38.62913v242.00908h-38.62913z" fill="#5775b1"/>
</g>
</g>
</g>
</svg>
