<?xml version="1.0" encoding="utf-8"?>
<!-- Generator: Adobe Illustrator 19.1.0, SVG Export Plug-In . SVG Version: 6.00 Build 0)  -->
<svg version="1.1" id="Layer_1" xmlns="http://www.w3.org/2000/svg" xmlns:xlink="http://www.w3.org/1999/xlink" x="0px" y="0px"
	 viewBox="0 0 256 256" enable-background="new 0 0 256 256" xml:space="preserve">
<g>
	<g>
		<path fill="#EDEBB9" d="M223.375,127.73c4.556,0,8.25,3.694,8.25,8.25s-3.694,8.25-8.25,8.25"/>
		<path d="M223.375,146.23v-4c3.446,0,6.25-2.804,6.25-6.25s-2.804-6.25-6.25-6.25v-4c5.652,0,10.25,4.598,10.25,10.25
			S229.027,146.23,223.375,146.23z"/>
	</g>
	<g>
		<path fill="#F2C900" d="M202.542,114.98h-6.097c-7.009,0-13.035-4.968-14.371-11.849l-2.699-31.651c0-0.931-10.755-9.5-11.686-9.5
			H38.895c-8.019,0-14.52,6.501-14.52,14.52V172c0,1.094,0.887,1.98,1.98,1.98h129.02h29h32.314c4.777,0,8.686-3.909,8.686-8.686
			v-27.48C225.375,125.255,215.1,114.98,202.542,114.98z"/>
	</g>
	<g>
		<circle fill="#191919" cx="184.375" cy="174.02" r="20"/>
		<path d="M184.375,196.02c-12.131,0-22-9.869-22-22s9.869-22,22-22s22,9.869,22,22S196.506,196.02,184.375,196.02z M184.375,156.02
			c-9.925,0-18,8.075-18,18s8.075,18,18,18s18-8.075,18-18S194.3,156.02,184.375,156.02z"/>
	</g>
	<g>
		<circle fill="#191919" cx="66.042" cy="174.02" r="20"/>
		<path d="M66.042,196.02c-12.131,0-22-9.869-22-22s9.869-22,22-22s22,9.869,22,22S78.173,196.02,66.042,196.02z M66.042,156.02
			c-9.925,0-18,8.075-18,18s8.075,18,18,18s18-8.075,18-18S75.967,156.02,66.042,156.02z"/>
	</g>
	<g>
		<circle fill="#939393" cx="66.042" cy="174.02" r="8"/>
		<path d="M66.042,184.02c-5.514,0-10-4.486-10-10s4.486-10,10-10s10,4.486,10,10S71.556,184.02,66.042,184.02z M66.042,168.02
			c-3.309,0-6,2.691-6,6s2.691,6,6,6s6-2.691,6-6S69.351,168.02,66.042,168.02z"/>
	</g>
	<g>
		<circle fill="#939393" cx="184.375" cy="174.02" r="8"/>
		<path d="M184.375,184.02c-5.514,0-10-4.486-10-10s4.486-10,10-10s10,4.486,10,10S189.889,184.02,184.375,184.02z M184.375,168.02
			c-3.309,0-6,2.691-6,6s2.691,6,6,6s6-2.691,6-6S187.684,168.02,184.375,168.02z"/>
	</g>
	<g>
		<path fill="#1CBBF2" d="M61.375,111.98h-21c-2.209,0-4-1.791-4-4v-30c0-2.209,1.791-4,4-4h21c2.209,0,4,1.791,4,4v30
			C65.375,110.189,63.584,111.98,61.375,111.98z"/>
		<path d="M61.375,113.98h-21c-3.309,0-6-2.691-6-6v-30c0-3.309,2.691-6,6-6h21c3.309,0,6,2.691,6,6v30
			C67.375,111.289,64.684,113.98,61.375,113.98z M40.375,75.98c-1.103,0-2,0.897-2,2v30c0,1.103,0.897,2,2,2h21c1.103,0,2-0.897,2-2
			v-30c0-1.103-0.897-2-2-2H40.375z"/>
	</g>
	<g>
		<path fill="#1CBBF2" d="M102.375,111.98h-21c-2.209,0-4-1.791-4-4v-30c0-2.209,1.791-4,4-4h21c2.209,0,4,1.791,4,4v30
			C106.375,110.189,104.584,111.98,102.375,111.98z"/>
		<path d="M102.375,113.98h-21c-3.309,0-6-2.691-6-6v-30c0-3.309,2.691-6,6-6h21c3.309,0,6,2.691,6,6v30
			C108.375,111.289,105.684,113.98,102.375,113.98z M81.375,75.98c-1.103,0-2,0.897-2,2v30c0,1.103,0.897,2,2,2h21
			c1.103,0,2-0.897,2-2v-30c0-1.103-0.897-2-2-2H81.375z"/>
	</g>
	<g>
		<path fill="#1CBBF2" d="M143.375,111.98h-21c-2.209,0-4-1.791-4-4v-30c0-2.209,1.791-4,4-4h21c2.209,0,4,1.791,4,4v30
			C147.375,110.189,145.584,111.98,143.375,111.98z"/>
		<path d="M143.375,113.98h-21c-3.309,0-6-2.691-6-6v-30c0-3.309,2.691-6,6-6h21c3.309,0,6,2.691,6,6v30
			C149.375,111.289,146.684,113.98,143.375,113.98z M122.375,75.98c-1.103,0-2,0.897-2,2v30c0,1.103,0.897,2,2,2h21
			c1.103,0,2-0.897,2-2v-30c0-1.103-0.897-2-2-2H122.375z"/>
	</g>
	<g>
		<path fill="#1CBBF2" d="M179.375,73.98h-15c-2.209,0-4,1.791-4,4v30c0,2.209,1.791,4,4,4h20.209v-3.057"/>
		<path d="M186.584,113.98h-22.209c-3.309,0-6-2.691-6-6v-30c0-3.309,2.691-6,6-6h15v4h-15c-1.103,0-2,0.897-2,2v30
			c0,1.103,0.897,2,2,2h18.209v-1.057h4V113.98z"/>
	</g>
	<g>
		<path fill="#F2C900" d="M215.708,173.98c0-17.305-14.028-31.333-31.333-31.333s-31.333,14.028-31.333,31.333H215.708z"/>
		<path d="M217.708,175.98h-66.666v-2c0-18.38,14.953-33.333,33.333-33.333s33.333,14.953,33.333,33.333V175.98z M155.109,171.98
			h58.531c-1.031-15.245-13.764-27.333-29.266-27.333S156.141,156.735,155.109,171.98z"/>
	</g>
	<g>
		<path fill="#F2C900" d="M97.375,173.98c0-17.305-14.028-31.333-31.333-31.333s-31.333,14.028-31.333,31.333H97.375z"/>
		<path d="M99.375,175.98H32.708v-2c0-18.38,14.953-33.333,33.334-33.333c18.38,0,33.333,14.953,33.333,33.333V175.98z
			 M36.775,171.98h58.532c-1.031-15.245-13.764-27.333-29.266-27.333C50.539,144.647,37.807,156.735,36.775,171.98z"/>
	</g>
	<g>
		<path d="M118.375,176.02c-1.104,0-2-0.896-2-2V124.98c0-1.104,0.896-2,2-2s2,0.896,2,2v49.039
			C120.375,175.124,119.479,176.02,118.375,176.02z"/>
	</g>
	<g>
		<rect x="145.375" y="107.98" width="4" height="66.039"/>
	</g>
	<g>
		<path d="M216.688,175.98H26.355c-2.195,0-3.98-1.786-3.98-3.98V76.5c0-9.109,7.41-16.52,16.52-16.52h124.669
			c10.1,0,18.47,7.898,19.056,17.982l1.443,24.915c1.2,5.862,6.388,10.104,12.383,10.104h6.097c13.693,0,24.833,11.14,24.833,24.833
			v27.48C227.375,171.187,222.581,175.98,216.688,175.98z M38.895,63.98c-6.903,0-12.52,5.616-12.52,12.52V172l190.313-0.02
			c3.687,0,6.687-3,6.687-6.687v-27.48c0-11.487-9.346-20.833-20.833-20.833h-6.097c-7.949,0-14.819-5.664-16.334-13.468
			l-0.034-0.266l-1.452-25.053c-0.462-7.97-7.078-14.213-15.062-14.213H38.895z"/>
	</g>
</g>
</svg>
