<?xml version="1.0" encoding="UTF-8" standalone="no"?>
<svg viewBox="0 0 1219.9526 1219.5085" xmlns="http://www.w3.org/2000/svg">
<g transform="translate(135.07056,359.68351)">
<path d="m730.32672,467.576c287.01548-337.04831-184.08764,532.796 147.97347,240.02486s-589.94495,65.65896-219.59809-176.87494c272.86545,414.30467-141.96297,68.99577-86.51478,40.4129 423.67489-128.3708-442.91559,348.69122-5.28403,281.92225s-531.79113-263.71251-89.11189-267.52038-523.212,209.78299-84.49667,269.01373-435.95351-402.85318-10.133-281.78963c-134.4218,477.52971-145.10933-62.10576-87.19716-38.91866 374.46424,236.12711-553.57123-106.38911-216.52289,180.6264s-148.94856-574.59591 143.82257-242.53485c-371.25502,329.04977-88.49694-130.69879-52.31396-79.88278 187.35941,401.09338-408.17545-388.78341-279.80464,34.89146s185.3465-563.90851 252.11548-126.27696-282.10856-488.03127-278.30072-45.35198 336.71007-488.8481 277.47934-50.13272-133.18684-547.74175-254.25047-121.92127 460.79538-374.18413 280.36357,30.07297c-453.53911-201.01311 82.12492-134.79391 50.93195-80.7709-287.01553,337.04831 184.08763-532.79598-147.97346-240.02486s589.94494-65.65893 219.59808,176.87495c-272.86542-414.30473 141.96297-68.99574 86.51478-40.4129-423.67487,128.3708 442.91558-348.69119 5.28402-281.92225s531.79118,263.7125 89.1119,267.52037 523.21206-209.78301 84.49667-269.01373 435.95348,402.85318 10.133,281.78963c134.4218-477.52979 145.10949,62.1058 87.19716,38.91865-374.46425-236.12712 553.57126,106.3891 216.52291-180.6264s148.94855,574.59592-143.8225,242.53485c371.25495-329.04964 88.49682,130.69873 52.31387,79.88279-187.35941-401.09341 408.17548,388.78341 279.80468-34.89147s-185.34653,563.90852-252.11548,126.27697 282.10858,488.03127 278.30068,45.35197-336.71007,488.84811-277.47933,50.13273 133.18688,547.74173 254.25043,121.92127-460.79535,374.18409-280.36353-30.07297c453.53923,201.01293-82.12493,134.79402-50.93195,80.77089z" fill="#c8edff"/>
<path d="m590.01014-349.08701c-45.78626,17.46592-84.71486,48.81687-111.60377,88.93227 17.07784,16.92149 37.27148,34.83954 58.25458,52.79004 114.87824-53.9794 213.39932-111.88109 53.34919-141.72231zm-53.34919,141.72231c-21.80094,10.24389-44.10334,20.35208-65.42203,30.09311-8.25509-3.60166-16.60739-7.2625-25.08607-10.9545-4.82919,18.76955-7.39619,38.43518-7.39619,58.71207 0,129.77214 105.20323,234.97538 234.97538,234.97538 116.6496,0 213.41498-85.00223 231.79832-196.44399-15.28091-3.28942-48.78816,12.63161-109.39254,60.51664-7.17514-23.00996-14.83446-47.09162-21.98526-70.88657-29.96191-3.97628-60.56828-8.63513-88.85602-12.58116 9.35843-109.02872-16.30131-265.52606-91.82975-45.67341-18.47336-15.47561-37.9287-31.60866-56.80584-47.75757zm237.49161,106.01214c50.64893,6.72169 99.38686,11.46772 131.86071,7.47245 1.76757-11.61935 2.69415-23.52084 2.69415-35.63391 0-19.39591-2.38072-38.21773-6.81162-56.24667-8.9703-8.75214-19.39117-18.24278-31.51644-28.56813-158.27079-134.77641-135.06767-16.27027-96.2268,112.97626z" fill="#ffd000"/>
<path d="m232.85714,478.79074c0,39.8434-32.29946,72.14286-72.14286,72.14286s-72.14286-32.29946-72.14286-72.14286 32.29946-72.14286 72.14286-72.14286 72.14286,32.29946 72.14286,72.14286z" fill="#005e90" transform="translate(202.00001,19.42857)"/>
<path d="m362.71429,514.44608v197.26078" fill="none" stroke="#005e90" stroke-width="44.79971"/>
<path d="m365.57143,672.50504-60,152.85714" fill="none" stroke="#005e90" stroke-width="50"/>
<path d="m364.14286,626.64789 149.99999-80" fill="none" stroke="#005e90" stroke-width="50"/>
<path d="m361.28572,672.50504 60,152.85714" fill="none" stroke="#005e90" stroke-width="50"/>
<path d="m362.00001,636.64789 141.42856-14.28571" fill="none" stroke="#005e90" stroke-width="50"/>
<path d="m472.96527,617.70943c130.86052-183.19406 225.1862-379.43628 319.2082-575.78695" fill="none" stroke="#005e90" stroke-width="3.5"/>
<path d="m804.2953,110.61285c-5.71136,17.86336 5.30819,35.2022 17.04595,47.86912 7.75879,8.37298 22.38762,15.66899 22.51638,25.82318 .18798,14.82373-15.25727,34.00802-6.64429,50.3003 7.15636,13.53694 24.0966,14.30473 34.32287,24.73096 13.74432,14.01307 19.84899,38.86535 5.43664,53.42631-9.29292,9.38873-14.24028,23.20258-9.31787,35.63402" fill="none" stroke="#005e90" stroke-width="3.5"/>
<path d="m816.13222,152.08766-19.11832,2.16501 16.48908,16.48396 4.64999-35.70843 15.27986,14.07962-17.30061,2.97984z" fill="#005e90" stroke="#005e90" stroke-width=".88348"/>
<path d="m837.2032,210.69489-11.68914-15.28271-5.65671,22.61884 33.01556-14.37664-4.2166,20.34528-11.45311-13.30477z" fill="#005e90" stroke="#005e90" stroke-width=".88348"/>
<path d="m867.63647,255.88373-18.28726,5.98107 19.47807,12.81465-2.65659-35.91179 17.80825,10.70401-16.34247,6.41206z" fill="#005e90" stroke="#005e90" stroke-width=".88348"/>
<path d="m729.91961-114.32011 136.228,85.93621-61.21431,141.17238-132.93174-76.04744 57.91805-151.06115z" fill="#005e90"/>
</g>
</svg>
