<?xml version="1.0" encoding="UTF-8" standalone="no"?>
<svg viewBox="0 0 640 480" xmlns="http://www.w3.org/2000/svg">
<defs>
<linearGradient gradientTransform="matrix(1.01963,0,0,1.07596,-5.09813,-11.83558)" gradientUnits="userSpaceOnUse" id="linearGradient5471" x1="116" x2="682" y1="12" y2="470">
<stop offset="0" stop-color="#fff"/>
<stop offset="1" stop-color="#19aeff"/>
</linearGradient>
</defs>
<title>Kites in a line</title>
<path d="m11.92482,0h616.15035a11.92482,11.92482 0 0,1 11.92482,11.92482v456.15035a11.92482,11.92482 0 0,1 -11.92482,11.92482h-616.15035a11.92482,11.92482 0 0,1 -11.92482-11.92482v-456.15035a11.92482,11.92482 0 0,1 11.92482-11.92482" fill="url(#linearGradient5471)"/>
<path d="m355.35935,287.11675c2.65281-4.43895 58.60109-89.66173 58.60109-89.66173l79.72195,68.94823c-44.78689,12.95268-45.77794,53.9861-66.81806,82.16458-16.59016-27.65163-32.56708-55.90995-71.50498-61.45108z" fill="#d76cff"/>
<path d="m354.19244,288.16051c39.01178-65.43804 96.05035-63.61582 135.14744-22.93516" fill="none" stroke="#cbab13" stroke-width="1.62953"/>
<path d="m427.26776,344.84908c-.48056-8.74137-14.29757-143.64244-14.29757-143.64244" fill="none" stroke="#e4ca31" stroke-width="1.75078"/>
<path d="m431.98116,339.07049c-14.80986,54.52435 1.93834,57.12191 7.08402,88.32014 1.19878,8.56879-1.76264,27.72516-1.76264,27.72516s2.0929,6.28699 3.60122-1.37799c1.2099-6.14812 1.96402-25.85192 1.5558-30.61572-26.62378-13.43347-8.03268-72.49268-10.47842-84.05217z" fill="#005c94"/>
<path d="m428.67574,344.64428c-14.80985,54.52435 5.24376,51.54812 10.38944,82.74635 1.19878,8.56879-1.76264,27.72516-1.76264,27.72516s2.0929,6.28699 3.60122-1.37799c1.2099-6.14812 1.96402-25.85192 1.5558-30.61572-26.62378-13.43347-16.75316-69.21841-19.1989-80.7779z" fill="#005c94"/>
<path d="m425.78529,348.23107c-4.5966,49.95891 8.22835,55.69226 10.93547,87.46058 .65942,8.67511-.077,26.75113-.077,26.75113s.95934,6.64882 1.38071-.5087c.33797-5.74073.19738-24.86916-.0682-29.6317-10.73034-19.38182-10.95676-72.17547-12.17108-84.07218z" fill="#005c94"/>
<path d="m270.12374,197.9277c2.63731-2.18298 60.84703-43.2361 60.84703-43.2361l37.90935,52.8095c-31.11315,4.04122-41.20578,24.68114-60.97683,37.62665-6.30179-18.79377-12.07116-37.84648-37.77955-47.20005z" fill="#ffc022"/>
<path d="m269.13084,198.35566c38.81383-32.19528 77.63063-22.17939 96.98532,7.7744" fill="none" stroke="#cbab13" stroke-width="1.06951"/>
<path d="m308.31525,243.56263c1.27794-5.19383 22.80331-88.31708 22.80331-88.31708" fill="none" stroke="#e4ca31" stroke-width="1.14909"/>
<path d="m304.28938,257.03833c-31.20621,17.74281-7.01485,25.11663-4.83349,40.3633 .28358,4.10742-7.3821,11.17969-7.3821,11.17969s1.99321,3.46738 5.53607.75859c2.84197-2.17274 7.35494-10.30434 7.57731-12.49127-36.84869-15.69488.70375-33.95967-.89775-39.81047z" fill="#005c94"/>
<path d="m307.82491,244.31041c-31.20621,17.74281-7.01485,25.11663-4.83349,40.3633 .28358,4.10742-7.3821,11.17969-7.3821,11.17969s1.99321,3.46738 5.53607.75859c2.84197-2.17274 7.35494-10.30434 7.57731-12.49127-36.84869-15.69488.70375-33.95967-.89775-39.81047z" fill="#005c94"/>
<path d="m309.2087,245.79441c-15.39186,19.61363-6.76704,24.8477-8.27179,39.42569-.52814,3.95099-4.73391,11.39425-4.73391,11.39425s.26302,3.19798 2.11909.29923c1.48897-2.32495 4.5861-10.5456 5.01816-12.67858-12.43876-12.28994 5.6002-32.90664 5.86854-38.44093z" fill="#005c94"/>
<path d="m197.52353,165.25498c1.69697-2.3893 40.73191-49.2303 40.73191-49.2303l43.04512,35.2663c-27.26533,7.7996-28.7793,29.35991-42.08203,44.62092-9.37434-14.14336-18.36584-28.61872-41.695-30.65692z" fill="#19aeff"/>
<path d="m196.79738,165.82874c24.96001-35.21973 59.27447-35.53806 81.91415-15.05907" fill="none" stroke="#cbab13" stroke-width=".91552"/>
<path d="m239.22718,195.81579c1.09389-4.44602-.98621-72.772-.98621-72.772" fill="none" stroke="#e4ca31" stroke-width=".98364"/>
<path d="m238.58991,192.81659c13.53625,33.98769 2.27751,12.38488-6.99059,26.95421-2.27772,4.07847-.32242,15.21666-.32242,15.21666s-3.18681,2.55758-4.37308-2.01475c-.95165-3.66762-.0999-14.30319.8437-16.66314 34.48126,2.46881 8.14909-21.11652 12.25663-26.3215z" fill="#005c94"/>
<path d="m238.58991,188.57395c13.53625,33.98769 2.27751,16.62752-6.99059,31.19685-2.27772,4.07847-.32242,15.21666-.32242,15.21666s-3.18681,2.55758-4.37308-2.01475c-.95165-3.66762-.0999-14.30319.8437-16.66314 34.48126,2.46881 8.8562-21.11652 12.96374-26.3215z" fill="#005c94"/>
<path d="m240.63975,194.42288c1.19358,27.92801-.59395,14.81182-6.86758,30.55454-1.61368,4.32741-2.33942,14.10043-2.33942,14.10043s-1.80378,3.15408-1.67839-.76209c.10033-3.14119 2.01756-13.15363 2.78275-15.56395 15.16895-6.35287 6.20973-21.79861 8.80984-27.62217z" fill="#005c94"/>
<path d="m145.98574,126.93026c1.26875-1.78647 30.45469-36.80889 30.45469-36.80889l32.18422,26.36815c-20.38591,5.83165-21.51785,21.95202-31.46413,33.36248-7.00902-10.57481-13.73182-21.39782-31.17478-22.92174z" fill="#ff4141"/>
<path d="m145.44283,127.35913c18.66222-26.33325 44.31869-26.57127 61.24609-11.2594" fill="none" stroke="#cbab13" stroke-width=".68452"/>
<path d="m177.15599,148.81614c-.0707-3.42271-.53243-58.37679-.53243-58.37679" fill="none" stroke="#e4ca31" stroke-width=".73545"/>
<path d="m176.41086,146.68041c14.88199,19.66586.1602,20.33759-3.36537,31.38329-.77877,3.03708 2.46785,9.91238 2.46785,9.91238s-1.6441,2.20971-3.22898-.54606c-1.27132-2.21047-2.58458-9.24737-2.37998-10.93976 23.09721-4.38546 4.7235-25.72548 6.50648-29.80985z" fill="#005c94"/>
<path d="m176.41086,146.68041c14.88199,19.66586.1602,20.33759-3.36537,31.38329-.77877,3.03708 2.46785,9.91238 2.46785,9.91238s-1.6441,2.20971-3.22898-.54606c-1.27132-2.21047-2.58458-9.24737-2.37998-10.93976 23.09721-4.38546 4.7235-25.72548 6.50648-29.80985z" fill="#005c94"/>
<path d="m176.68013,149.68809c5.70279,17.88294.0607,20.085-1.2896,31.37095-.29853,3.08317.94558,9.53949.94558,9.53949s-.63006,2.35608-1.23732-.20231c-.48731-2.05217-.99042-8.87037-.91205-10.56436 8.85095-6.74779 1.81006-25.92049 2.49339-30.14396z" fill="#005c94"/>
<path d="m106.67553,115.36952c.58495-1.57421 15.24447-33.29155 15.24447-33.29155l29.05721,13.13654c-13.93526,8.36119-11.57553,20.52001-16.67541,30.94039-7.28668-6.43841-14.41057-13.11729-27.62627-10.78538z" fill="#ccff42"/>
<path d="m106.35872,115.79476c8.59225-23.19703 27.5391-28.46265 43.10815-20.48483" fill="none" stroke="#cbab13" stroke-width=".52464"/>
<path d="m134.09292,125.38891c-.73131-2.51991-11.97423-43.11185-11.97423-43.11185" fill="none" stroke="#e4ca31" stroke-width=".56368"/>
<path d="m133.5972,123.82707c-7.75691,19.47687 4.36787,16.82234 9.67891,25.17129 1.30529,2.33718.18479,8.72001.18479,8.72001s1.82617,1.46558 2.50601-1.15459c.5453-2.10175.0572-8.1965-.48345-9.5489-19.75958,1.41484-9.53244-20.20503-11.88626-23.18781z" fill="#005c94"/>
<path d="m133.5972,123.82707c-7.75691,19.47687 4.36787,16.82234 9.67891,25.17129 1.30529,2.33718.18479,8.72001.18479,8.72001s1.82617,1.46558 2.50601-1.15459c.5453-2.10175.0572-8.1965-.48345-9.5489-19.75958,1.41484-9.53244-20.20503-11.88626-23.18781z" fill="#005c94"/>
<path d="m134.04338,126.36843c-.68397,16.00425 4.3929,16.59214 7.98754,25.61355 .92479,2.47996 1.34069,8.08036 1.34069,8.08036s1.03367,1.80746.96176-.43671c-.0571-1.8001-1.15617-7.53774-1.59456-8.91899-8.69273-3.64057-7.20548-21.0011-8.69549-24.33834z" fill="#005c94"/>
<path d="m67.68255,84.9507c.56378-1.4501 14.69401-30.33567 14.69401-30.33567l28.00793,16.00493c-13.43206,6.45616-11.15747,18.44735-16.07326,27.90477-7.02353-7.04415-13.89024-14.30142-26.62868-13.57402z" fill="#9eabb0"/>
<path d="m67.37714,85.3241c8.28206-21.37089 26.54466-24.26673 41.55153-14.78592" fill="none" stroke="#cbab13" stroke-width=".50569"/>
<path d="m94.10992,111.76238c-.7049-2.51301-11.54187-42.9326-11.54187-42.9326" fill="none" stroke="#e4ca31" stroke-width=".54332"/>
<path d="m94.74909,111.59409c-1.81116,15.38152 6.33335,11.169 11.71961,16.11122 1.37827,1.41826 1.79913,6.18714 1.79913,6.18714s1.58338.69661 1.56754-1.30308c-.0129-1.60398-1.52633-5.85987-2.1708-6.72145-13.82966,4.78763-10.66549-12.59544-12.91548-14.27383z" fill="#005c94"/>
<path d="m94.74909,111.59409c-1.81116,15.38152 6.33335,11.169 11.71961,16.11122 1.37827,1.41826 1.79913,6.18714 1.79913,6.18714s1.58338.69661 1.56754-1.30308c-.0129-1.60398-1.52633-5.85987-2.1708-6.72145-13.82966,4.78763-10.66549-12.59544-12.91548-14.27383z" fill="#005c94"/>
<path d="m95.55343,113.32225c2.57196,11.55126 6.3072,10.99992 10.59721,16.75024 1.13406,1.59278 2.5017,5.50968 2.5017,5.50968s1.08316,1.09214.60281-.49556c-.38526-1.27351-2.26629-5.15775-2.84321-6.05948-6.89911-.93583-9.15725-13.60846-10.85861-15.70498z" fill="#005c94"/>
<path d="m45.15851,63.03461c.63835-.89874 15.32156-18.51829 15.32156-18.51829l16.19176,13.26566c-10.25604,2.93393-10.82556,11.04395-15.82943,16.78443-3.52627-5.32009-6.90851-10.76512-15.68389-11.5318z" fill="#005c94"/>
<path d="m44.88535,63.2505c9.38887-13.24814 22.2965-13.36791 30.81252-5.66458" fill="none" stroke="#cbab13" stroke-width=".34438"/>
<path d="m60.84006,74.04529c-.03539-1.72186-.26784-29.369-.26784-29.369" fill="none" stroke="#e4ca31" stroke-width=".37"/>
<path d="m60.79111,72.97092c-8.2272,11.03117-.08863,11.40805 1.8605,17.60398 .43049,1.70357-1.36433,5.56013-1.36433,5.56013s.90888,1.23959 1.78509-.30628c.70284-1.23994 1.42878-5.18719 1.31566-6.13649-12.76873-2.45999-2.61121-14.43035-3.59692-16.72145z" fill="#005c94"/>
<path d="m60.79111,72.97092c-8.2272,11.03117-.08863,11.40805 1.8605,17.60398 .43049,1.70357-1.36433,5.56013-1.36433,5.56013s.90888,1.23959 1.78509-.30628c.70284-1.23994 1.42878-5.18719 1.31566-6.13649-12.76873-2.45999-2.61121-14.43035-3.59692-16.72145z" fill="#005c94"/>
<path d="m60.64226,74.65802c-3.15267,10.03108-.03397,11.26635.71297,17.59706 .16496,1.72943-.5228,5.35097-.5228,5.35097s.3483,1.32161.68405-.1135c.26931-1.15104.54751-4.9756.50411-5.92586-4.89293-3.78504-1.00059-14.53981-1.37833-16.90885z" fill="#005c94"/>
<path d="m32.43046,50.99893c.47184-.66429 11.32488-13.68772 11.32488-13.68772l11.96807,9.80526c-7.58071,2.1686-8.00167,8.16309-11.70026,12.40615-2.60643-3.93232-5.1064-7.957-11.59269-8.52369z" fill="#19aeff"/>
<path d="m32.22856,51.1585c6.93975-9.79231 16.48037-9.88084 22.77496-4.18695" fill="none" stroke="#cbab13" stroke-width=".25455"/>
<path d="m44.02143,59.13743c-.02616-1.27271-.19797-21.70798-.19797-21.70798" fill="none" stroke="#e4ca31" stroke-width=".27348"/>
<path d="m43.98524,58.34331c-6.0811,8.15365-.06553,8.43222 1.37518,13.01191 .31819,1.25919-1.00844,4.10975-1.00844,4.10975s.6718.91624 1.31944-.22639c.5195-.91649 1.05608-3.83409.97246-4.53576-9.43796-1.81829-1.93006-10.66614-2.65864-12.3596z" fill="#005c94"/>
<path d="m43.98524,58.34331c-6.0811,8.15365-.06553,8.43222 1.37518,13.01191 .31819,1.25919-1.00844,4.10975-1.00844,4.10975s.6718.91624 1.31944-.22639c.5195-.91649 1.05608-3.83409.97246-4.53576-9.43796-1.81829-1.93006-10.66614-2.65864-12.3596z" fill="#005c94"/>
<path d="m43.87522,59.59034c-2.33029,7.41443-.0251,8.32748.52699,13.0068 .12193,1.2783-.38643,3.95515-.38643,3.95515s.25744.97687.50561-.08389c.19906-.85079.40469-3.67769.37262-4.38008-3.61659-2.7977-.73958-10.74705-1.01879-12.49811z" fill="#005c94"/>
<path d="m32.43046,50.99893c.47184-.66429 11.32488-13.68772 11.32488-13.68772l11.96807,9.80526c-7.58071,2.1686-8.00167,8.16309-11.70026,12.40615-2.60643-3.93232-5.1064-7.957-11.59269-8.52369z" fill="#ff4141"/>
<path d="m32.22856,51.1585c6.93975-9.79231 16.48037-9.88084 22.77496-4.18695" fill="none" stroke="#cbab13" stroke-width=".25455"/>
<path d="m44.02143,59.13743c-.02616-1.27271-.19797-21.70798-.19797-21.70798" fill="none" stroke="#e4ca31" stroke-width=".27348"/>
<path d="m43.98524,58.34331c-6.0811,8.15365-.06553,8.43222 1.37518,13.01191 .31819,1.25919-1.00844,4.10975-1.00844,4.10975s.6718.91624 1.31944-.22639c.5195-.91649 1.05608-3.83409.97246-4.53576-9.43796-1.81829-1.93006-10.66614-2.65864-12.3596z" fill="#005c94"/>
<path d="m43.98524,58.34331c-6.0811,8.15365-.06553,8.43222 1.37518,13.01191 .31819,1.25919-1.00844,4.10975-1.00844,4.10975s.6718.91624 1.31944-.22639c.5195-.91649 1.05608-3.83409.97246-4.53576-9.43796-1.81829-1.93006-10.66614-2.65864-12.3596z" fill="#005c94"/>
<path d="m43.87522,59.59034c-2.33029,7.41443-.0251,8.32748.52699,13.0068 .12193,1.2783-.38643,3.95515-.38643,3.95515s.25744.97687.50561-.08389c.19906-.85079.40469-3.67769.37262-4.38008-3.61659-2.7977-.73958-10.74705-1.01879-12.49811z" fill="#005c94"/>
<path d="m20.99109,37.78084c.36332-.5115 8.72011-10.53949 8.72011-10.53949l9.21537,7.55001c-5.83712,1.66981-6.16125,6.28555-9.00915,9.55269-2.00694-3.02787-3.93191-6.12685-8.92633-6.5632z" fill="#19aeff"/>
<path d="m20.83562,37.90371c5.34358-7.54004 12.68982-7.6082 17.53663-3.22393" fill="none" stroke="#cbab13" stroke-width=".196"/>
<path d="m29.91608,44.04745c-.02014-.97998-.15244-16.71506-.15244-16.71506" fill="none" stroke="#e4ca31" stroke-width=".21058"/>
<path d="m29.88822,43.43599c-4.68242,6.27828-.05048,6.49277 1.05889,10.01912 .24501.96957-.7765,3.16449-.7765,3.16449s.51728.7055 1.01597-.17431c.40002-.7057.81318-2.95224.74879-3.49252-7.26719-1.40008-1.48614-8.21289-2.04715-9.51684z" fill="#005c94"/>
<path d="m29.88822,43.43599c-4.68242,6.27828-.05048,6.49277 1.05889,10.01912 .24501.96957-.7765,3.16449-.7765,3.16449s.51728.7055 1.01597-.17431c.40002-.7057.81318-2.95224.74879-3.49252-7.26719-1.40008-1.48614-8.21289-2.04715-9.51684z" fill="#005c94"/>
<path d="m29.80351,44.39619c-1.79431,5.70908-.01932,6.41212.40578,10.01518 .09388.98429-.29755,3.04545-.29755,3.04545s.19823.75218.38932-.06457c.15327-.6551.31161-2.83181.28691-3.37264-2.78476-2.15422-.56947-8.27518-.78446-9.6235z" fill="#005c94"/>
<path d="m20.99109,37.78084c.36332-.5115 8.72011-10.53949 8.72011-10.53949l9.21537,7.55001c-5.83712,1.66981-6.16125,6.28555-9.00915,9.55269-2.00694-3.02787-3.93191-6.12685-8.92633-6.5632z" fill="#ffc022"/>
<path d="m20.83562,37.90371c5.34358-7.54004 12.68982-7.6082 17.53663-3.22393" fill="none" stroke="#cbab13" stroke-width=".196"/>
<path d="m29.91608,44.04745c-.02014-.97998-.15244-16.71506-.15244-16.71506" fill="none" stroke="#e4ca31" stroke-width=".21058"/>
<path d="m29.88822,43.43599c-4.68242,6.27828-.05048,6.49277 1.05889,10.01912 .24501.96957-.7765,3.16449-.7765,3.16449s.51728.7055 1.01597-.17431c.40002-.7057.81318-2.95224.74879-3.49252-7.26719-1.40008-1.48614-8.21289-2.04715-9.51684z" fill="#005c94"/>
<path d="m29.88822,43.43599c-4.68242,6.27828-.05048,6.49277 1.05889,10.01912 .24501.96957-.7765,3.16449-.7765,3.16449s.51728.7055 1.01597-.17431c.40002-.7057.81318-2.95224.74879-3.49252-7.26719-1.40008-1.48614-8.21289-2.04715-9.51684z" fill="#005c94"/>
<path d="m29.80351,44.39619c-1.79431,5.70908-.01932,6.41212.40578,10.01518 .09388.98429-.29755,3.04545-.29755,3.04545s.19823.75218.38932-.06457c.15327-.6551.31161-2.83181.28691-3.37264-2.78476-2.15422-.56947-8.27518-.78446-9.6235z" fill="#005c94"/>
<path d="m519,432-91.37258-170.12132-106.43503-61.27208-88.48528-45.63604-61.53554-32.82842-50.05025-10.87868-41.12132-25.26346-25-17-15-8-15-12" fill="none" opacity=".42439" stroke="#d5cece"/>
<path d="m182,67a53,51 0 1,1 -106,0 53,51 0 1,1 106,0z" fill="#fff" opacity=".12195" transform="translate(-42,16)"/>
<path d="m82,153a16,13 0 1,1 -32,0 16,13 0 1,1 32,0z" fill="#fff" opacity=".32195"/>
<path d="m124,209a30,19 0 1,1 -60,0 30,19 0 1,1 60,0z" fill="#fff" opacity=".32195"/>
<path d="m178,307a55,31 0 1,1 -110,0 55,31 0 1,1 110,0z" fill="#fff" opacity=".32195" transform="matrix(.70909,0,0,.87097,65.78182,39.6129)"/>
</svg>
