<?xml version="1.0" encoding="UTF-8" standalone="no"?>
<svg viewBox="0 0 474.00412 446.67596" xmlns="http://www.w3.org/2000/svg" xmlns:xlink="http://www.w3.org/1999/xlink">
<defs>
<linearGradient id="linearGradient4098">
<stop offset="0" stop-color="#ffb142"/>
<stop offset="1" stop-color="#c87600"/>
</linearGradient>
<linearGradient gradientUnits="userSpaceOnUse" id="linearGradient3211" x1="347.47728" x2="355.96724" xlink:href="#linearGradient4098"/>
<linearGradient gradientUnits="userSpaceOnUse" id="linearGradient3327" x1="186.21062" x2="186.21059" xlink:href="#linearGradient4098" y1="354.02182" y2="362.27768"/>
<linearGradient gradientUnits="userSpaceOnUse" id="linearGradient3329" x1="195.75447" x2="195.75444" xlink:href="#linearGradient4098" y1="354.02182" y2="362.27768"/>
<linearGradient gradientUnits="userSpaceOnUse" id="linearGradient3331" x1="176.38606" x2="176.38603" xlink:href="#linearGradient4098" y1="354.02182" y2="362.27768"/>
<linearGradient gradientUnits="userSpaceOnUse" id="linearGradient3333" x1="229.43869" x2="229.43866" xlink:href="#linearGradient4098" y1="354.02182" y2="362.27768"/>
<linearGradient gradientUnits="userSpaceOnUse" id="linearGradient3335" x1="238.98254" x2="238.98251" xlink:href="#linearGradient4098" y1="354.02182" y2="362.27768"/>
<linearGradient gradientUnits="userSpaceOnUse" id="linearGradient3337" x1="219.61412" x2="219.61409" xlink:href="#linearGradient4098" y1="354.02182" y2="362.27768"/>
<pattern height="1" id="Strips1_1" patternTransform="matrix(0,4.47214,-4.47214,0,-50.00413,-3.0322266e-6)" patternUnits="userSpaceOnUse" width="2">
<path d="m0-.5h1v2h-1z"/>
</pattern>
</defs>
<g transform="translate(-112.1747,-366.20177)">
<path d="m122.97425,810.83105 9.89949-18.38478c-19.79899-57.98275 0-95.45941 0-95.45941l-9.89949,18.38478c0,0-19.79899,37.47666 0,95.45941z" fill="#400000" fill-rule="evenodd" stroke="#000" stroke-linecap="round" stroke-linejoin="round" stroke-width="4"/>
<path d="m123.17883,810.87773h461l-131.84292-228.35863h-197.15708l-132,228.35863z" fill="#800000" fill-rule="evenodd" stroke="#000" stroke-linejoin="round" stroke-width="4"/>
<path d="m143,216.3125-128.53125,222.375h441.53125l-128.375-222.375h-184.625z" fill-opacity=".31373" fill-rule="evenodd" transform="translate(112.1747,366.20177)"/>
<path d="m132.87375,793.15338c-19.79899-57.98275 0-95.45941 0-95.45941l421.78918.35356v95.10588l-421.78918-3e-005z" fill="#fff" fill-rule="evenodd" stroke="#000" stroke-linecap="round" stroke-width="4"/>
<path d="m132.87375,793.15338c-19.79899-57.98275 0-95.45941 0-95.45941l421.78918.35356v95.10588l-421.78918-3e-005z" fill="url(#Strips1_1)" fill-rule="evenodd" opacity=".19298" stroke="#000" stroke-linecap="round" stroke-width="4"/>
<path d="m123.17883,714.82748h461l-131.84292-228.35863h-197.15708l-132,228.35863z" fill="#800000" fill-rule="evenodd" stroke="#000" stroke-linejoin="round" stroke-width="4"/>
<path d="m516.8372,534.26593a165.56416,165.56416 0 1,1 -331.12832,0 165.56416,165.56416 0 1,1 331.12832,0z" fill-opacity=".31373" transform="matrix(1,0,0,.28125,25,510.00608)"/>
<path d="m214,353.12833a8,13.5 0 1,1 -16,0 8,13.5 0 1,1 16,0z" fill="url(#linearGradient3337)" stroke="#000" stroke-linecap="round" stroke-linejoin="round" stroke-width="2.8687" transform="matrix(1.78125,0,0,1.70547,-35.00867,108.10507)"/>
<path d="m214,353.12833a8,13.5 0 1,1 -16,0 8,13.5 0 1,1 16,0z" fill="url(#linearGradient3335)" stroke="#000" stroke-linecap="round" stroke-linejoin="round" stroke-width="2.8687" transform="matrix(1.78125,0,0,1.70547,-69.50867,108.10507)"/>
<path d="m214,353.12833a8,13.5 0 1,1 -16,0 8,13.5 0 1,1 16,0z" fill="url(#linearGradient3333)" stroke="#000" stroke-linecap="round" stroke-linejoin="round" stroke-width="2.8687" transform="matrix(1.78125,0,0,1.70547,-52.50867,108.10507)"/>
<path d="m214,353.12833a8,13.5 0 1,1 -16,0 8,13.5 0 1,1 16,0z" fill="url(#linearGradient3331)" stroke="#000" stroke-linecap="round" stroke-linejoin="round" stroke-width="2.8687" transform="matrix(1.78125,0,0,1.70547,41.99133,108.10507)"/>
<path d="m214,353.12833a8,13.5 0 1,1 -16,0 8,13.5 0 1,1 16,0z" fill="url(#linearGradient3329)" stroke="#000" stroke-linecap="round" stroke-linejoin="round" stroke-width="2.8687" transform="matrix(1.78125,0,0,1.70547,7.49133,108.10507)"/>
<path d="m214,353.12833a8,13.5 0 1,1 -16,0 8,13.5 0 1,1 16,0z" fill="url(#linearGradient3327)" stroke="#000" stroke-linecap="round" stroke-linejoin="round" stroke-width="2.8687" transform="matrix(1.78125,0,0,1.70547,24.49133,108.10507)"/>
<path d="m135.25,321.125c-5.8064,0-10.78031,5.63035-13,13.6875 18.97108,5.07429 39.81417,8.03415 61.71875,8.4375-.29837-12.28481-6.54288-22.12499-14.21875-22.125-3.30091,0-6.3333,1.82747-8.75,4.875-2.4167-3.04753-5.44909-4.87499-8.75-4.875-3.18578,0-6.12606,1.70484-8.5,4.5625-2.37394-2.85766-5.31422-4.56249-8.5-4.5625zm77,0c-7.65621,0-13.8907,9.79047-14.21875,22.03125 21.88058-.70434 42.61585-3.98355 61.4375-9.34375-2.3472-7.51562-7.15711-12.68749-12.71875-12.6875-3.30091,0-6.3333,1.82747-8.75,4.875-2.4167-3.04753-5.44909-4.87499-8.75-4.875-3.18578,0-6.12606,1.70484-8.5,4.5625-2.37394-2.85766-5.31422-4.56249-8.5-4.5625z" fill-opacity=".31373" transform="translate(162.17883,366.20177)"/>
<path d="m516.8372,534.26593a165.56416,165.56416 0 1,1 -331.12832,0 165.56416,165.56416 0 1,1 331.12832,0z" fill="#784421" stroke="#000" stroke-linecap="round" stroke-width="5"/>
<path d="m418.63184,583.05383c-23.38235-4.34433-1.98299,19.08631-5.56831,27.55829-14.17356-6.96919-8.77298,16.10296-15.18229,22.51228-12.14461-.6495-14.0403,11.59697-22.51228,15.18229-10.2367-5.67938-17.78497,5.56832-27.55829,5.56832s-15.5569-10.80652-27.55829-5.56832c-8.47198-3.58532-10.36767-15.39062-22.51228-15.18229-6.40932-6.40932-5.4205-30.80501-15.1823-22.51228-3.58532-8.47198 12.9611-33.66732-5.56831-27.55829 0-9.77332 19.63005-27.90983 5.56831-27.55829 3.58533-8.47198 21.5671-14.77943 15.1823-22.51228 12.81863-12.81863 30.52393-20.7506 50.07057-20.7506s37.25194,7.93197 50.07057,20.7506c-9.47304,4.64461 11.59697,14.0403 15.18229,22.51228-15.82645-.79272 5.56831,17.78497 5.56831,27.55829z" fill="#fff" stroke="#000" stroke-linecap="round" stroke-linejoin="round" stroke-width="4.41176" transform="matrix(1.13333,0,0,1.13333,-41.33858,-43.74635)"/>
<path d="m335.375,90.5c1.98061,10.23246 3.03125,20.78543 3.03125,31.59375 0,3.72989-.13179,7.42509-.375,11.09375-3.67259-.18281-7.57831.01904-11.75.625-35.21544,7.49865-20.17331,51.66406-29.34375,97.875-30.34233,34.32869-74.70943,55.96875-124.09375,55.96875-30.37329,0-58.83164-8.20726-83.3125-22.5-23.67921-55.44259 8.0762-115.66462-33.65625-126.0625-46.11047-8.32536-63.97048,34.45625-34.15625,98.5625 16.46098,35.39423 43.7229,52.77976 63.78125,59.53125 28.36337,22.80037 64.39183,36.4375 103.59375,36.4375 45.94954,0 87.55719-18.73944 117.5625-49 17.45353-8.71747 36.86154-24.59496 50.34375-51.15625 25.2124-49.6709 20.38473-87.07842-5.46875-97.4375-3.16986-16.13601-8.66598-31.44191-16.15625-45.53125z" fill-opacity=".31373" fill-rule="evenodd" transform="translate(162.17883,366.20177)"/>
<path d="m217.9154,497.24676c48.1112,17.30003-14.16343,94.14271 37.81914,161.19179 9.60838,12.39326-57.86796,2.09077-81.72278-66.58505-23.19831-66.78576-1.13236-107.53908 43.90364-94.60674z" fill="#784421" fill-rule="evenodd" stroke="#000" stroke-width="5"/>
<path d="m484.35799,497.24676c-48.1112,17.30003 14.16343,94.14271-37.81914,161.19179-9.60838,12.39326 57.86796,2.09077 81.72278-66.58505 23.19831-66.78576 1.13236-107.53908-43.90364-94.60674z" fill="#784421" fill-rule="evenodd" stroke="#000" stroke-width="5"/>
<path d="m466.68279,488.19932c13.38868-4.60902 27.22104,7.58384 29.86518,14.17993-13.51228-3.45229-19.71963-4.4258-23.21838-1.38072 1.50674,3.37144 17.40824,6.74191 22.33733,28.87115-12.42877-8.61661-22.30354-18.57557-26.27241-14.48312 2.88158,5.03382 6.19951,14.49739 3.96357,23.88076-7.14149-9.42443-14.43873-19.37844-21.14152-19.64782" fill="#784421" fill-rule="evenodd" stroke="#000" stroke-linecap="round" stroke-linejoin="round" stroke-width="5"/>
<path d="m305.32208,406.46578c-31.23446,0-56.60334,29.33139-56.60334,65.47171s25.36888,65.47171 56.60334,65.47171c18.35565,0 34.64439-10.1409 44.98476-25.82946 10.33966,15.69995 26.66388,25.82946 45.02732,25.82946 31.23446,0 56.60332-29.33142 56.60333-65.47171s-25.36887-65.4717-56.60333-65.47171c-18.3613,0-34.68747,10.13264-45.02732,25.82947-10.34057-15.68518-26.63144-25.82946-44.98476-25.82947z" fill="#fff" stroke="#000" stroke-linecap="round" stroke-width="5"/>
<path d="m352.02155,517.37473c-9.28799,0-19.38363,10.32725-18.97981,16.84971s16.55686,33.69941 20.19128,33.69941 17.76833-26.63341 17.36451-34.24295-12.5186-16.84972-18.57598-16.30617z" fill-opacity=".31373" fill-rule="evenodd"/>
<path d="m349.90023,506.76588c-9.28799,0-19.38363,9.3062-18.97981,15.18379s16.55686,30.36759 20.19128,30.36759 17.76833-24.00019 17.36451-30.85739-12.5186-15.1838-18.57598-14.69399z" fill="url(#linearGradient3211)" fill-rule="evenodd" stroke="#000" stroke-width="5"/>
<path d="m340.57116,487.36658a10.38711,10.38711 0 1,1 -20.77421,0 10.38711,10.38711 0 1,1 20.77421,0z" stroke="#000" stroke-linecap="round" stroke-width="3.16929" transform="matrix(1.57764,0,0,1.57764,-190.5674,-292.52206)"/>
<path d="m235.32229,488.19932c-13.38868-4.60902-27.22104,7.58384-29.86518,14.17993 13.51228-3.45229 19.71963-4.4258 23.21838-1.38072-1.50674,3.37144-17.40824,6.74191-22.33733,28.87115 12.42877-8.61661 22.30354-18.57557 26.27241-14.48312-2.88158,5.03382-6.19951,14.49739-3.96357,23.88076 7.14149-9.42443 14.43873-19.37844 21.14152-19.64782" fill="#784421" fill-rule="evenodd" stroke="#000" stroke-linecap="round" stroke-linejoin="round" stroke-width="5"/>
<path d="m364.14937,417.48451c13.27592-32.15975 35.66559-36.51322 35.66559-36.51322s-12.4533,16.77531-1.17397,12.10875c17.4653-7.22586 72.99675,15.41831 72.99675,15.41831s-73.57445-17.12602-107.48837,8.98616z" fill="#fff" fill-rule="evenodd" stroke="#000" stroke-linejoin="round" stroke-width="5"/>
<path d="m333.70826,414.48452c-13.27592-32.15976-35.66559-36.51323-35.66559-36.51323s12.45331,16.77532 1.17398,12.10875c-17.46531-7.22586-72.99675,15.41831-72.99675,15.41831s73.57444-17.12602 107.48836,8.98617z" fill="#fff" fill-rule="evenodd" stroke="#000" stroke-linejoin="round" stroke-width="5"/>
<path d="m340.57116,487.36658a10.38711,10.38711 0 1,1 -20.77421,0 10.38711,10.38711 0 1,1 20.77421,0z" stroke="#000" stroke-linecap="round" stroke-width="3.16929" transform="matrix(1.57764,0,0,1.57764,-149.0674,-292.52206)"/>
<path d="m209.5,105.42596a5.25,5.25 0 1,1 -10.5,0 5.25,5.25 0 1,1 10.5,0z" fill="#fff" transform="matrix(.80952,0,0,.80952,159.08359,385.2829)"/>
<path d="m209.5,105.42596a5.25,5.25 0 1,1 -10.5,0 5.25,5.25 0 1,1 10.5,0z" fill="#fff" transform="matrix(.80952,0,0,.80952,200.58359,385.2829)"/>
<path d="m337.9375,128.65625c-.41261-.0006-.83163.02054-1.25.03125 16.21208,13.06454 23.07333,43.29712 14.78125,85.34375-11.02308,55.89475-53.57658,80.00799-67.71875,81.28125 4.59211,6.52643 60.97088-8.12575 82.34375-69.65625 20.29853-58.43754 5.92075-96.95013-28.15625-97z" fill-opacity=".31373" fill-rule="evenodd" transform="translate(162.17883,366.20177)"/>
<path d="m4.0625,160.84375c-3.45178,16.50581-1.29853,38.67265 7.78125,64.8125 23.85482,68.67582 91.32713,78.987 81.71875,66.59375-4.10892-5.29984-7.52039-10.67453-10.3125-16.0625-18.9515-4.54141-54.0478-24.37623-69.90625-70.03125-5.87955-16.92667-8.85389-32.18045-9.28125-45.3125zm71.28125,6.34375c-.88285,8.53607-1.85621,17.61189-2.28125,27.125 .99329-9.79063 2.07939-18.94113 2.28125-27.125z" fill-opacity=".31373" fill-rule="evenodd" transform="translate(162.17883,366.20177)"/>
<path d="m233.11316,756.37773h-56.5c0,0-12.82745,5.53333 10.57844,34.58333-.10393-19.36666 14.85294-20.75 14.85294-20.75s19.60392,19.36667 40.86274,27.66667c-25.5353-33.2-7.72941-39.425-9.79412-41.5z" fill-opacity=".31373" fill-rule="evenodd"/>
<path d="m231.76022,756.87773h-56.5c0,0-17,4-15.5,25 14.5-14 30.5-15 30.5-15s5,14 20,20c-.5-24 22-28.5 21.5-30z" fill="#000080" fill-rule="evenodd" stroke="#000" stroke-linejoin="round" stroke-width="4"/>
</g>
</svg>
