<?xml version="1.0" encoding="UTF-8" standalone="no"?>
<svg viewBox="0 0 354.33069 354.33069" xmlns="http://www.w3.org/2000/svg" xmlns:xlink="http://www.w3.org/1999/xlink">
<defs>
<linearGradient id="linearGradient5537-0-4">
<stop offset="0" stop-color="#f00"/>
<stop offset=".4" stop-color="#f00"/>
<stop offset="1" stop-color="#800000"/>
</linearGradient>
<linearGradient gradientUnits="userSpaceOnUse" id="linearGradient7820" x1="364.30649" x2="334.08511" y1="657.94908" y2="702.96636">
<stop offset="0" stop-color="#fff"/>
<stop offset="1" stop-color="#fff" stop-opacity="0"/>
</linearGradient>
<radialGradient cx="187.88837" cy="48.42618" gradientTransform="matrix(.28613,.18503,-.207,.31741,288.50191,613.20119)" gradientUnits="userSpaceOnUse" id="radialGradient7813" r="40.50318">
<stop offset="0" stop-color="#f0f"/>
<stop offset="1" stop-color="#800080"/>
</radialGradient>
<radialGradient cx="249.76901" cy="279.72198" gradientTransform="matrix(.05054,-.96023,.47648,.02487,201.13378,968.1585)" gradientUnits="userSpaceOnUse" id="radialGradient7816" r="32.46783">
<stop offset="0" stop-color="#784421" stop-opacity="0"/>
<stop offset=".2" stop-color="#784421" stop-opacity="0"/>
<stop offset="1" stop-color="#784421"/>
</radialGradient>
<radialGradient cx="211.85938" cy="167.26562" gradientTransform="matrix(.43957,-.09304,.23738,1.11206,207.71883,536.38835)" gradientUnits="userSpaceOnUse" id="radialGradient7818" r="47.89063">
<stop offset="0" stop-color="#f60" stop-opacity="0"/>
<stop offset=".4" stop-color="#d45500" stop-opacity="0"/>
<stop offset="1" stop-color="#d45500"/>
</radialGradient>
<radialGradient cx="182.5" cy="78.20998" gradientTransform="matrix(2.62804,5.15783,-1.74447,.88885,-345.51486,-772.75878)" gradientUnits="userSpaceOnUse" id="radialGradient7822" r="38.35758">
<stop offset="0" stop-color="#999"/>
<stop offset=".125" stop-color="#e6e6e6"/>
<stop offset=".25" stop-color="#999"/>
<stop offset=".5" stop-color="#808080"/>
<stop offset="1" stop-color="#b3b3b3"/>
</radialGradient>
<radialGradient cx="260.11429" cy="331.47375" gradientTransform="matrix(1.25461,1.54931,-.90211,.73051,47.96645,-156.84114)" gradientUnits="userSpaceOnUse" id="radialGradient7811" r="22.35518" xlink:href="#linearGradient5537-0-4"/>
<radialGradient cx="182.12064" cy="306.73907" gradientTransform="matrix(1.51351,0,0,2.7071,-278.0955,-368.14176)" gradientUnits="userSpaceOnUse" id="radialGradient7824" r="13.77006" xlink:href="#linearGradient5537-0-4"/>
</defs>
<g transform="matrix(2.81143,0,0,2.81143,-756.38053,-1835.37979)">
<g transform="matrix(.3468,0,0,.34534,331.178,590.29092)">
<g transform="matrix(.99821,-.06658,.02684,1,73.0196,-121.14517)">
<path d="m-23.8125,588.5c-2.97942.3122-5.94004,1.25007-8.28125,2.8125s-4.1249,3.89457-4.25,6.78125c-.01433.33059-.20663,1.3118-.5,2.46875s-.68381,2.55397-.96875,4.03125c-.56989,2.95456-.92759,6.33253.75,9.0625 5.74037,9.34139 7.32765,11.06511 11.1875,16.03125 2.1279,2.73779 4.96864,6.52783 8.375,9.6875s7.46936,5.78125 12.15625,5.78125c8.91583,0 16.40625-6.22751 16.40625-14.1875 0-3.65852-1.14708-8.65978-4.125-11.46875-1.63639-1.54356-4.283-3.04916-7.0625-5.53125s-5.62426-5.81994-7.46875-10.625c-1.52526-3.97344-2.39927-7.06616-3.75-9.5625s-3.4436-4.35503-6.625-5.03125c-1.86566-.39656-3.86429-.45742-5.84375-.25z" transform="matrix(.97841,-.07697,-8.7475958e-4,1.00423,-.67119,1.76163)"/>
<path d="m8.75,634.09557c0,6.75563-6.43591,12.70825-14.375,13.29556s-14.51497-7.96726-18.66071-12.99456c-3.75-4.5474-5.20908-5.98374-10.7381-14.57219-2.50876-3.89696.80496-11.80495.91178-14.27788 .2571-5.95168 9.51615-9.70079 15.98278-8.80464 5.45091.75538 5.93911,4.94318 8.93282,12.52061 3.77082,9.54437 11.79588,12.83009 14.42679,15.11712 2.29875,1.99829 3.51964,6.56576 3.51964,9.71598z" fill="#fff"/>
</g>
<path d="m65.94798,469.9244c-2.91474.30336-5.81108,1.21468-8.10146,2.73288s-4.03535,3.78432-4.15773,6.58928c-.014.32124-.20214,1.27467-.48914,2.39887s-.66896,2.48167-.94772,3.91713c-.55751,2.87092-.90745,6.15327.73372,8.80596 5.61573,9.07695 7.16855,10.75187 10.9446,15.57743 2.0817,2.66029 4.86077,6.34304 8.19317,9.41326s7.3072,5.6176 11.89233,5.6176c8.72226,0 16.05005-6.05122 16.05005-13.78588 0-3.55495-1.12217-8.41464-4.03544-11.14409-1.60087-1.49986-4.19001-2.96284-6.90917-5.37467s-5.50215-5.65519-7.30659-10.32422c-1.49215-3.86096-2.34718-6.86613-3.66858-9.29181s-3.36884-4.23174-6.48117-4.88882c-1.82515-.38533-3.78039-.44447-5.71687-.24292z"/>
<path d="m99.18187,511.91488c0,6.75563-6.43591,12.23215-14.375,12.23215s-14.51497-9.04103-18.66071-14.37501c-3.75-4.82481-5.20908-6.36909-10.7381-15.36656-2.50876-4.08255.80496-11.7454.91178-14.21043 .2571-5.93266 9.51616-8.99682 15.98278-7.62229 5.45091,1.15862 5.9391,5.38253 8.93282,13.18143 3.77082,9.82332 11.79588,13.7027 14.42679,16.18436 2.29875,2.16834 3.51964,6.82613 3.51964,9.97635z" fill="url(#radialGradient7811)"/>
<path d="m78.64616,472.16898c0,3.62813-4.79694,6.85526-10.71428,7.20799s-10.71429-2.3025-10.71429-5.93062 4.79695-6.85525 10.71429-7.20799 10.71428,2.3025 10.71428,5.93062z"/>
<path d="m76.14616,472.18269c0,3.0432-3.83756,5.75005-8.57143,6.04592s-8.57143-1.93129-8.57143-4.97449 3.83756-5.75006 8.57143-6.04592 8.57143,1.93129 8.57143,4.97449z" fill="#fff"/>
<path d="m83.58164,498.40939c-1.57602-1.75035-6.89901-1.78966-8.36578,1.60096-.5755,1.33034.21785-.54585 3.85505-1.38533s5.44062.81713 4.51073-.21563z"/>
<path d="m78.21077,493.71783c-1.69339-.65003-5.35963,1.18403-5.18066,4.0234 .0702,1.11405-.0413-.45072 2.1609-2.29839s4.01889-1.34148 3.01976-1.72501z"/>
<path d="m69.65833,407.8652c-1.70447,0-3.60347.61545-5.23793,1.375-.81722.37977-1.51581.67123-2.19752,1.53125-.34085.43001-.77149,1.32355-.45154,2.28125s1.02107,1.32635 1.53525,1.53125c2.74119,1.09234 4.76708,3.66046 6.17112,7.5s2.08055,8.83877 2.10721,14.15625c.0533,10.63496-2.53081,22.61092-6.08081,29.4375-1.77529,3.41386-1.44088,7.08858 1.05361,8.65625 1.24724.78383 2.92623.75011 4.30473,0s2.56352-2.10567 3.58226-4.0625c5.36841-10.31183 7.57166-25.40168 7.014-38.15625-.27883-6.37728-1.2366-12.13842-3.04041-16.53125-.9019-2.19641-2.01675-4.08094-3.46184-5.46875s-3.2907-2.25-5.29813-2.25z"/>
<path d="m64.04164,412.80371c-2.20048-.84468 3.57762-3.03046 5.93464-3.03046 12.64287,0 13.8829,39.98566 3.283,59.599-3.72677,6.89576-9.01191,2.9224-5.93465-2.77792 7.86717-14.57315 10.69059-48.42667-3.28299-53.79062z" fill="#cb7d15"/>
</g>
<g transform="matrix(.3468,0,0,.34534,331.178,590.29092)">
<g transform="translate(373.87187,-118.5723)">
<path d="m569.28125,337.40625c-2.39031,0-5.32278,1.16083-8.4375,2.65625s-6.20412,3.34923-8.28125,5.03125c-1.31979,1.06875-2.58785,2.54953-3.4375,4.25s-1.33618,3.74583-.53125,5.6875c.59608,1.43786 1.78093,2.46366 3.09375,3.3125 .61687.39886 1.26209.74733 1.9375,1-1.658.42108-3.72304,1.12863-5.625,2.75-1.26044,1.07449-2.35008,2.57394-2.6875,4.46875s.0845,4.0628 1.4375,6.40625c1.61071,2.78983 3.86707,4.469 6.5,4.625s5.34488-.95964 8.5-2.78125c2.533-1.46243 4.17002-3.13422 5.28125-4.5s1.96094-2.48284 1.8125-2.375c2.16638-1.57396 4.75872-4.12051 7-6.75s4.13308-5.16637 4.75-7.46875c.45918-1.71368.44798-3.47655-.625-4.90625-.51928-.69192-1.52779-1.18552-2.53125-1.125 .009-.006.0226-.0256.0312-.0312 2.17896-1.41503 3.06772-3.92674 2-5.84375-.53386-.95851-1.55692-1.66184-2.71875-1.84375-.71218-.11151-1.46909.003-2.25.21875-.009-.0528.0443-.10516.0312-.15625-.13966-.54764-.47367-.93008-.78125-1.21875-1.23032-1.1547-2.78134-1.40625-4.46875-1.40625z" transform="matrix(.8792,-.47717,.45195,.88699,-936.28683,305.57833)"/>
<path d="m-305.18002,342.58355c-.90373.48506-1.74204,1.24038-2.44151,2.26843-.4294.63112-.46634,1.57507-.29426,2.19877s.4475,1.04767.72094,1.40832c.54676.72135 1.15147,1.22687 1.47033,1.53869 2.39288,2.33996 4.98835,7.81871 5.71025,12.42257 .49102,3.13135 1.30856,6.32079 3.64061,8.83308s5.93299,4.07981 11.4775,4.60098c.93411.0878 1.8934-.0848 2.62533-.6206s1.14408-1.37252 1.35635-2.19356c.42451-1.6421.20148-3.39959-.23274-5.31083-.86841-3.82245-2.73944-8.20199-4.22413-11.2334-.52884-1.07975-1.20326-1.64527-2.11336-2.4062s-1.99461-1.48597-3.15107-1.97991-2.61289-.89956-3.89183.0708c-.0965.0732-.14673.20284-.23233.28911-.0132-.0525-.0151-.0681-.029-.1219-.48794-1.94253-1.12601-4.77439-3.10707-7.80735-1.48938-2.28023-4.57708-3.40985-7.28438-1.95686z"/>
<path d="m-305.20664,348.00401c-.80113-.72133-2.37209-1.94976-1.73845-2.8219 2.62926-3.61887 6.35204-2.74714 7.741-.7376 1.73091,2.50427 2.29105,5.57132 3.24175,8.04797 1.16907,3.04556.49138-.39309 3.39506-.3931 1.50329-.0319 3.8567.77288 7.33609,3.90574 10.41244,8.43184 7.16501,17.81782 1.34172,17.51264-11.72611-.61454-13.79483-5.54053-14.70391-11.74787-.75995-5.1891-3.48711-10.95109-6.61326-13.76588z" fill="#fff"/>
<path d="m-283.10488,333.57038c-4.8098,3.41096-9.95309,12.29229-11.79278,17.95424-.41693,1.96155 1.65387-3.63232 6.51902.74829 2.28752,2.05968 3.86578,4.09432 4.56152,5.29938-.61626.50293-1.21834.97817-1.83399,1.42548-2.07084,1.50454-9.40087,8.39525-1.22366,13.7056 4.87641,3.16678 8.1248,1.21021 11.95566-4.68882 2.94241-4.53091 2.55161-8.06958 3.13058-9.20588 2.22817-4.37299 4.58907-13.52306 3.86871-16.91216-.57186-2.69039-3.12181-4.83662-4.29978-1.21122-1.12784,3.47115-3.61593,8.29543-5.26037,10.32615-.83012.0233-1.44992-.0823-1.31769-.52108 1.43929-4.77559 3.83154-10.78583 5.52807-13.72429 1.98676-3.44117-1.54113-6.39973-4.44855-2.39803-3.39784,4.67674-5.37465,9.17623-6.69181,13.23-.14829.45642-.5558.10056-1.03765-.45332 .49742-3.9079 1.91534-7.86976 5.50036-11.85133 2.55072-2.83285-.91403-3.31411-3.15764-1.72301z" fill="#fff"/>
<path d="m-283.3419,349.57281c-.57655-.72023-2.13154-2.35996-4.2222-2.41651-.44641-.0123.42773-.94983.86629-.93796 1.98344.0537 4.00245,1.40895 4.23181,1.95836 .20165.48309-.52743,1.83144-.8759,1.39611z"/>
<path d="m-276.53912,352.71461c-.57656-.72023-2.13154-2.35997-4.22221-2.41651-.4464-.0123.42774-.94982.86631-.93796 1.98342.0537 4.00244,1.40895 4.2318,1.95836 .20164.48309-.52744,1.83144-.8759,1.39611z"/>
<path d="m548.66073,377.80862c0,3.30385-2.67829,5.98215-5.98214,5.98215s-5.98214-2.6783-5.98214-5.98215 2.67829-5.98214 5.98214-5.98214 5.98214,2.6783 5.98214,5.98214z" transform="matrix(1.25631,-.64012,.75263,1.19899,-1256.4419,271.75175)"/>
<path d="m548.66073,377.80862c0,3.30385-2.67829,5.98215-5.98214,5.98215s-5.98214-2.6783-5.98214-5.98215 2.67829-5.98214 5.98214-5.98214 5.98214,2.6783 5.98214,5.98214z" fill="#fff" transform="matrix(.94399,-.48098,.56552,.90091,-1016.676,297.87097)"/>
</g>
<path d="m81.0564,258.72052c-1.14063.18806-2.11751,1.0322-2.58098,2.21028-.002.005-.0289-.005-.0307,0l-.0316.0614-.0316.0614c-.003.008.002.0253-.00045.0307s.006.0165-.00044.0306-.0268.017-.0312.0306c-.0252.057-.0576.12117-.0948.18419-.11692.19814-.33905.49786-.59641.89025-.50616.77177-1.18752,1.84068-2.07139,3.06985-1.77424,2.46736-4.21805,5.70508-6.9797,9.05604-5.52137,6.69959-12.47201,13.91243-17.34452,16.48507-.98924.52231-1.65647,1.39976-1.99928,2.33308-.33418.90984-.44162,1.89189-.41041,2.88566 .0621,1.9786.64916,4.10976 1.44766,6.04759 .79731,1.93494 1.81356,3.68447 3.09221,4.88105 .63353.59288 1.40151,1.15176 2.40777,1.25864 1.07982.1147 2.16359-.42468 2.84399-1.28933 11.036-14.02457 18.25424-27.07709 25.22853-43.40762 .41171-.96402.62243-1.89804.37881-2.82425-.25886-.98415-1.03697-1.70672-1.93733-1.93401-.41634-.1051-.85262-.12826-1.25819-.0614z"/>
<path d="m79.89616,260.75417c.57041-1.89165 3.57945-1.80047 2.32142,1.25-6.81657,16.52888-13.89532,29.599-24.82142,43.75-3.01955,3.91078-9.89723-11.42855-5.53572-13.75 10.97468-5.84136 27.57996-29.73858 28.03572-31.25z" fill="#ff0"/>
</g>
<path d="m344.67311,758.71432c5.32475-9.36805 11.05423-18.58292 13.61626-28.10415 .26326-.97835-.41755-5.07085-.47591-5.43778-3.7658-9.00883-24.46694-1.99373-23.79536,6.57595 .14086,1.33462-.047,1.06201.47906,1.65185 2.32292,2.60477 4.73178,5.1343 6.1664,9.54341 1.79309,5.51083 2.97857,11.13655 4.00955,15.77072z"/>
<path d="m348.3041,674.25544c1.46054-1.84704-4.65181-9.84595-5.86303-11.23979-4.38999-5.05188-10.56848-5.59132-16.33359-2.74459-6.76333,3.33965-9.20617,7.60966-7.48206,11.66009 .96509,2.26728 4.38412,11.39478 7.3141,11.7286 10.90881-1.53118 17.76261-4.77999 22.36459-9.40431z"/>
<path d="m346.36851,673.45735c1.32868-1.70031-4.38124-8.8407-5.51089-10.0823-4.09438-4.50015-9.7944-4.87826-15.08124-2.19461-6.20224,3.14831-8.41333,7.06237-6.78569,10.70266 .91109,2.03769 4.1492,10.24932 6.85303,10.49932 10.04044-1.58354 16.32693-4.65113 20.52479-8.92507z" fill="url(#radialGradient7813)"/>
<path d="m344.83195,757.84221c4.98758-9.41062 9.86152-18.82125 12.331-28.23187-2.84518-8.05935-23.39337-6.01954-22.49101,2.52964 7.52494,6.50701 8.48359,16.2833 10.16001,25.70223z" fill="#f5cec7"/>
<path d="m323.09679,682.79902c6.77293-4.72751 14.98182-8.36437 24.57692-11.12132 7.31619,17.72369 9.28942,31.51661 10.67969,57.93264-2.02913-.40573-4.30349.29417-5.24921,2.08248-3.63869-6.21925-8.33882-.85908-8.78173,2.00057-1.46723-2.25888-3.79081-5.03897-10.27085-1.55341-1.01137-19.21669-4.06628-35.87853-10.95482-49.34096z"/>
<path d="m344.83195,757.84221c4.98758-9.41062 9.86152-18.82125 12.331-28.23187-2.84518-8.05935-23.39337-6.01954-22.49101,2.52964 7.52494,6.50701 8.48359,16.2833 10.16001,25.70223z" fill="url(#radialGradient7816)"/>
<path d="m346.58239,671.67607c-8.85944,2.75694-16.41883,6.39885-22.63971,11.12636 6.99725,13.67489 9.82551,32.16943 10.7292,49.34018 5.96409-3.48556 8.15077-.70487 9.53708,1.55402 .37676-2.85965 4.67207-8.22654 8.11735-2.00728 .85535-1.78832 2.94836-2.48855 4.83356-2.08282-.34544-12.98952-1.64247-25.76515-4.08577-37.1886 .12295-.18491.24403-.36728.35764-.56117-.1711-.0448-.33827-.10569-.50937-.17267-1.61215-7.35035-3.70916-14.12405-6.33998-20.00802z" fill="#ff0"/>
<path d="m346.58239,671.67607c-8.85944,2.75694-16.41883,6.39885-22.63971,11.12636 6.99725,13.67489 9.82551,32.16943 10.7292,49.34018 5.96409-3.48556 8.15077-.70487 9.53708,1.55402 .37676-2.85965 4.67207-8.22654 8.11735-2.00728 .85535-1.78832 2.94836-2.48855 4.83356-2.08282-.34544-12.98952-1.64247-25.76515-4.08577-37.1886 .12295-.18491.24403-.36728.35764-.56117-.1711-.0448-.33827-.10569-.50937-.17267-1.61215-7.35035-3.70916-14.12405-6.33998-20.00802z" fill="url(#radialGradient7818)"/>
<path d="m346.64741,673.65097c-7.22289,2.24767-13.50932,5.13279-18.84655,8.77374 5.2257-2.65986 11.08697-4.81737 17.58939-6.51825 2.267,4.88357 4.12546,9.68632 5.66806,14.48261l1.33302.6691c-1.37342-5.94867-3.25656-11.76883-5.74392-17.4072zm6.2858,19.88931-.20591.3993-.69361-.35613c.9557,3.25854 1.78108,6.52031 2.49264,9.80976-.39958-3.3135-.92206-6.60301-1.59312-9.85293z" fill="url(#linearGradient7820)"/>
<g transform="matrix(.3468,0,0,.34534,331.178,590.29092)">
<path d="m11.48081,322.16804 2.28125,15.03125c1.40556,6.17056 3.20223,12.02348 5.78125,16.375 3.97642.14975 9.76791.004 14.8125-.6875 1.35333-7.28701 2.125-15.53307 2.125-24.28125 0-1.24992-.0318-2.49029-.0625-3.71875-.21046.026-.41206.0712-.625.0937-10.25076,1.08476-23.04542-1.40526-24.3125-2.8125z"/>
<path d="m11.48081,322.16804 2.28125,15.03125c1.40556,6.17056 3.20223,12.02348 5.78125,16.375 3.59614.14493 8.66603.0599 13.34375-.46875 1.26652-7.34506 2-15.65638 2-24.5 0-1.20059-.0365-2.38165-.0625-3.5625-10.07139.83913-22.11622-1.51168-23.34375-2.875z" fill="#800000"/>
<path d="m20.35581,336.16804c-2.45972-.0179-4.73555.0306-6.75.4375 1.93894,8.689 4.62909,16.84493 9.15625,21.15625 2.41787,2.30259 5.34759,3.81081 8.65625,4.5625 2.76007.1207 5.35735.2236 7.59375,0 1.7073-.1707 3.27504-.52549 4.5-1.5s1.90625-2.58139 1.90625-4.46875c0-3.77473-2.18533-8.54784-5.5-12.625s-7.86556-7.46875-12.96875-7.46875l-6.59375-.0937z"/>
<path d="m20.35581,337.51179c-2.40934-.0176-4.60374.0829-6.4375.4375 1.91217,8.17322 4.55281,15.72615 8.84375,19.8125 1.33229,1.26877 2.81659,2.27147 4.4375,3.0625 8.87399.0354 16.875,1.88126 16.875-4.46875 0-6.41045-8.15037-18.75-17.125-18.75h-1.03125c3.72844,1.75102 5.07732,6.49508 4.65625,11.125-1.07983-4.68011-4.00561-9.48361-8.375-11.1875-.60699-.0109-1.25564-.0271-1.84375-.0312z" fill="#f00"/>
<path d="m52.32456,306.29304c-14.664,9.36357-35.08696,9.01241-44.96875,1.1875 1.589,3.82512 2.67848,10.12107 3.90625,17 .52715.23145 1.16741.45704 1.9375.6875 1.62283.48567 3.76675.9283 6.1875,1.3125 4.8415.76839 10.84194,1.22569 16.21875.59375 4.99678-.58729 9.33707-2.23652 12.4375-3.875 1.55021-.81924 2.79462-1.61328 3.65625-2.34375 .43081-.36523.75491-.73421 1-1.0625s.46589-.63871.40625-1.125c-.26303-2.14455-.89394-8.42891-.78125-12.375z"/>
<path d="m51.48081,306.79304c-14.59511,8.83106-34.42889,8.36538-44.125.6875 .38651.93043.72467,2.06037 1.0625,3.25 .29982.84678.49645,1.69078.65625,2.53125 .002.01-.002.0216 0,.0312 .5296,2.24878 1.03909,4.83735 1.53125,7.53125 .23548.48789.53704.9337.90625,1.34375 1.26708,1.40724 14.03049,3.92851 24.28125,2.84375 9.51044-1.00643 16.59757-5.51238 16.4375-6.6875-.27254-2.00081-.97476-8.07631-.75-11.53125z" fill="#fff"/>
<path d="m53.79331,343.73054c-.3954-.00068-.63746.14479-.875.25-.31672.14026-.65012.32549-1,.53125-.69975.41153-1.57371.95017-2.75,1.59375-2.35258,1.28715-5.8337,2.93804-10.90625,4.25-5.67844,1.46868-14.8683,1.70358-19.71875,1.4375 1.19697,2.38269 2.59397,4.42144 4.21875,5.96875 7.68406,7.3177 20.52977,6.52088 34.28125-.71875-.82233-3.00722-1.20861-5.28306-1.375-6.96875-.21168-2.14449-.0945-3.37742-.15625-4.59375-.0133-.2611-.0582-.56648-.25-.90625s-.5956-.68231-1.03125-.78125c-.16977-.0386-.3057-.0623-.4375-.0625zm3.875,15.5c-.24302,1.63873-.4331,3.19088-.59375,4.71875 .70413-1.14759.98746-2.56556.78125-4.0625a1.37232,1.41635 0 0,0 -.0625-.25l-.125-.40625z"/>
<path d="m54.10581,345.69929c-1.29061.33863-5.51339,3.935-15.25,6.375-5.64923,1.4157-14.08234,1.70199-19.3125,1.5 .95734,1.61531 2.0216,3.04743 3.21875,4.1875 7.51145,7.15332 19.94266,6.54198 33.34375-.25-1.88442-6.74057-1.46774-9.66067-1.5625-11.46875-.0169-.32255-.13967-.4219-.4375-.34375z" fill="#fff"/>
</g>
<path d="m357.16457,729.60987c-1.8852-.40574-3.98904.2945-4.8444,2.08282-3.44527-6.21926-7.72974-.86317-8.10651,1.99648-1.38124-2.25063-3.64238-4.96743-9.5572-1.54014 .0971.43757.2795.837.37777,1.27035 5.88236-3.56099 8.09301-.72138 9.50456,1.58639 .33356-2.92154 4.52477-8.40429 8.04148-2.05044 .82507-1.82702 2.90912-2.5405 4.79021-2.12599z"/>
<path d="m346.13234,745.76521c-1.23197,0-2.42263.14928-3.54388.43168 .072.28028.13809.5594.20591.84176 1.04604-.33996 2.16717-.5288 3.33797-.5288 1.46384,0 2.85234.28957 4.10745.80939l.40099-.83097c-1.39515-.46232-2.91438-.72306-4.50844-.72306z"/>
<path d="m346.13234,746.50985c-1.16821,0-2.29433.18985-3.33797.5288 .845,3.51797 1.3935,7.18453 2.03746,10.80261 1.85888-3.50737 3.69924-7.01466 5.40796-10.52202-1.25654-.5214-2.64218-.80939-4.10745-.80939z" fill="#666"/>
<path d="m348.061,687.82396c1.79169,1.81677 3.58376,3.56649 5.37544,4.03614-4.24265,7.24037-15.18013,8.19354-19.71356,4.61889 1.54744,3.70936 1.76748,13.96264 5.34293,17.35324 2.73352,2.5922 7.36078,2.25063 12.26814-.43167-.60971,3.58211-.66285,6.27465-.3468,9.14067 .1154-2.81508 1.02685-5.27365 1.66899-8.90325 .0926-.52258-.14491-1.08534-.59607-1.39214s-1.08705-.34244-1.57145-.0863c-2.40161,1.26293-4.68576,1.93473-6.57841,2.01807s-3.34826-.3714-4.44341-1.37056c-1.32971-1.21316-2.43421-4.42968-3.1429-7.81327-.42528-2.0305-.74816-4.04094-1.13795-5.83838 2.4872.80489 5.39681.97588 8.32327.46405 4.31675-.75499 8.67141-2.99225 11.14103-7.04705 .22778-.37564.26034-.85054.0867-1.25185s-.54784-.71988-.98622-.83097c-1.43791-.36263-3.35613-.40838-5.57052-2.55766-.0386-.0379-.0763-.0746-.11921-.10792z"/>
<g transform="matrix(.3468,0,0,.34534,331.178,590.29092)">
<path d="m46.71803,255.58395c-5.72326,0-10.42196,4.11414-12.99529,9.75-2.18833-2.06834-4.93261-3.4375-8.06917-3.4375-8.5559,0-15.63655,8.47825-16.80322,18.53125-.58338,5.02696.42133,9.69414 2.71995,13.21875s6.03118,5.90625 10.30557,5.90625c6.40959,0 11.78266-4.90299 14.65748-11.5 2.37907,2.49724 5.45569,4.15625 8.9456,4.15625 8.33627,0 14.76208-8.42283 15.14103-18.21875 .1894-4.89616-1.14129-9.40836-3.59638-12.78125s-6.13743-5.625-10.30557-5.625z"/>
<path d="m46.24437,258.1152c-5.89986,0-11.03374,5.18383-12.625,12.125-1.94066-3.54844-5.19467-5.8125-9.15625-5.8125-7.12484,0-13.79548,7.31649-14.875,16.3125s3.84391,16.28125 10.96875,16.28125c6.53381,0 12.63204-6.13841 14.4375-14.09375 2.09499,4.09174 5.71912,6.75 9.96875,6.75 6.90391,0 12.80757-7.06419 13.15625-15.78125s-4.97109-15.78125-11.875-15.78125z" fill="#fff"/>
<path d="m49.96742,277.23952c.92182,2.83709-.63081,5.8843-3.46791,6.80612s-5.88431-.63079-6.80614-3.46789 .63081-5.88432 3.46791-6.80615 5.8843.6308 6.80614,3.46792z"/>
<path d="m46.09172,277.31205c.39899,1.22799-.27304,2.54694-1.50103,2.94594s-2.54695-.27305-2.94594-1.50104 .27303-2.54695 1.50103-2.94595 2.54694.27303 2.94594,1.50105z" fill="#fff"/>
<path d="m26.59405,283.30815c.78425,2.41365-.53665,5.00605-2.95029,5.7903s-5.00606-.53667-5.7903-2.95031 .53665-5.00607 2.95029-5.7903 5.00606.53665 5.7903,2.95031z"/>
<path d="m23.29685,283.36987c.33945,1.04471-.23229,2.16679-1.277,2.50625s-2.1668-.23229-2.50624-1.277 .23228-2.1668 1.27699-2.50625 2.1668.23228 2.50625,1.277z" fill="#fff"/>
</g>
<g transform="matrix(.3468,0,0,.34534,331.178,590.29092)">
<g transform="matrix(-.40674,.91355,.91355,.40674,-517.30826,421.39977)">
<path d="m569.28125,337.40625c-2.39031,0-5.32278,1.16083-8.4375,2.65625s-6.20412,3.34923-8.28125,5.03125c-1.31979,1.06875-2.58785,2.54953-3.4375,4.25s-1.33618,3.74583-.53125,5.6875c.59608,1.43786 1.78093,2.46366 3.09375,3.3125 .61687.39886 1.26209.74733 1.9375,1-1.658.42108-3.72304,1.12863-5.625,2.75-1.26044,1.07449-2.35008,2.57394-2.6875,4.46875s.0845,4.0628 1.4375,6.40625c1.61071,2.78983 3.86707,4.469 6.5,4.625s5.34488-.95964 8.5-2.78125c2.533-1.46243 4.17002-3.13422 5.28125-4.5s1.96094-2.48284 1.8125-2.375c2.16638-1.57396 4.75872-4.12051 7-6.75s4.13308-5.16637 4.75-7.46875c.45918-1.71368.44798-3.47655-.625-4.90625-.51928-.69192-1.52779-1.18552-2.53125-1.125 .009-.006.0226-.0256.0312-.0312 2.17896-1.41503 3.06772-3.92674 2-5.84375-.53386-.95851-1.55692-1.66184-2.71875-1.84375-.71218-.11151-1.46909.003-2.25.21875-.009-.0528.0443-.10516.0312-.15625-.13966-.54764-.47367-.93008-.78125-1.21875-1.23032-1.1547-2.78134-1.40625-4.46875-1.40625z" transform="matrix(.8792,-.47717,.45195,.88699,-936.28683,305.57833)"/>
<path d="m-305.18002,342.58355c-.90373.48506-1.74204,1.24038-2.44151,2.26843-.4294.63112-.46634,1.57507-.29426,2.19877s.4475,1.04767.72094,1.40832c.54676.72135 1.15147,1.22687 1.47033,1.53869 2.39288,2.33996 4.98835,7.81871 5.71025,12.42257 .49102,3.13135 1.30856,6.32079 3.64061,8.83308s5.93299,4.07981 11.4775,4.60098c.93411.0878 1.8934-.0848 2.62533-.6206s1.14408-1.37252 1.35635-2.19356c.42451-1.6421.20148-3.39959-.23274-5.31083-.86841-3.82245-2.73944-8.20199-4.22413-11.2334-.52884-1.07975-1.20326-1.64527-2.11336-2.4062s-1.99461-1.48597-3.15107-1.97991-2.61289-.89956-3.89183.0708c-.0965.0732-.14673.20284-.23233.28911-.0132-.0525-.0151-.0681-.029-.1219-.48794-1.94253-1.12601-4.77439-3.10707-7.80735-1.48938-2.28023-4.57708-3.40985-7.28438-1.95686z"/>
<path d="m-305.20664,348.00401c-.80113-.72133-2.37209-1.94976-1.73845-2.8219 2.62926-3.61887 6.35204-2.74714 7.741-.7376 1.73091,2.50427 2.29105,5.57132 3.24175,8.04797 1.16907,3.04556.49138-.39309 3.39506-.3931 1.50329-.0319 3.8567.77288 7.33609,3.90574 10.41244,8.43184 7.16501,17.81782 1.34172,17.51264-11.72611-.61454-13.79483-5.54053-14.70391-11.74787-.75995-5.1891-3.48711-10.95109-6.61326-13.76588z" fill="#fff"/>
<path d="m-283.10488,333.57038c-4.8098,3.41096-9.95309,12.29229-11.79278,17.95424-.41693,1.96155 1.65387-3.63232 6.51902.74829 2.28752,2.05968 3.86578,4.09432 4.56152,5.29938-.61626.50293-1.21834.97817-1.83399,1.42548-2.07084,1.50454-9.40087,8.39525-1.22366,13.7056 4.87641,3.16678 8.1248,1.21021 11.95566-4.68882 2.94241-4.53091 2.55161-8.06958 3.13058-9.20588 2.22817-4.37299 4.58907-13.52306 3.86871-16.91216-.57186-2.69039-3.12181-4.83662-4.29978-1.21122-1.12784,3.47115-3.61593,8.29543-5.26037,10.32615-.83012.0233-1.44992-.0823-1.31769-.52108 1.43929-4.77559 3.83154-10.78583 5.52807-13.72429 1.98676-3.44117-1.54113-6.39973-4.44855-2.39803-3.39784,4.67674-5.37465,9.17623-6.69181,13.23-.14829.45642-.5558.10056-1.03765-.45332 .49742-3.9079 1.91534-7.86976 5.50036-11.85133 2.55072-2.83285-.91403-3.31411-3.15764-1.72301z" fill="#fff"/>
<path d="m-283.3419,349.57281c-.57655-.72023-2.13154-2.35996-4.2222-2.41651-.44641-.0123.42773-.94983.86629-.93796 1.98344.0537 4.00245,1.40895 4.23181,1.95836 .20165.48309-.52743,1.83144-.8759,1.39611z"/>
<path d="m-276.53912,352.71461c-.57656-.72023-2.13154-2.35997-4.22221-2.41651-.4464-.0123.42774-.94982.86631-.93796 1.98342.0537 4.00244,1.40895 4.2318,1.95836 .20164.48309-.52744,1.83144-.8759,1.39611z"/>
<path d="m548.66073,377.80862c0,3.30385-2.67829,5.98215-5.98214,5.98215s-5.98214-2.6783-5.98214-5.98215 2.67829-5.98214 5.98214-5.98214 5.98214,2.6783 5.98214,5.98214z" transform="matrix(1.25631,-.64012,.75263,1.19899,-1256.4419,271.75175)"/>
<path d="m548.66073,377.80862c0,3.30385-2.67829,5.98215-5.98214,5.98215s-5.98214-2.6783-5.98214-5.98215 2.67829-5.98214 5.98214-5.98214 5.98214,2.6783 5.98214,5.98214z" fill="#fff" transform="matrix(.94399,-.48098,.56552,.90091,-1016.676,297.87097)"/>
</g>
<path d="m-57.06724,306.25141c.99785-.71482 2.36512-.81397 3.59741-.27698 .005.002.018-.0254.0231-.0231l.0698.0224 .0698.0224c.008.003.0177.0204.0233.0227 .0115.005.008.0166.0233.0227 .0136.007.0329-.007.0464-.00036 .0617.0239.13422.0478.20944.0672 .23653.0611.62832.11947 1.11611.22104 .95941.19976 2.27341.49123 3.85979.75107 3.18442.52157 7.44991,1.11922 12.03912,1.56338 9.17522.888 22.83144,1.0888 28.61392-.63589 1.17399-.35015 2.31606-.19189 3.22463.25183 .88571.43255 1.63032,1.08951 2.26703,1.85933 1.26769,1.53273 2.19905,3.57399 2.82496,5.62875 .62499,2.0517.94358,4.12847.67441,5.98685-.13337.92079-.40162,1.91694-1.1702,2.75244-.82476.89658-2.08902,1.30486-3.23356,1.16609-18.56418-2.25079-35.28249-6.63682-52.77724-13.66799-1.03276-.41506-1.89203-.95844-2.4042-1.83694-.5442-.93345-.50209-2.06015.004-2.90661 .23383-.39141.54413-.73625.89893-.99042z"/>
<path d="m-54.66948,306.90805c-1.84817-.99267-4.03977,1.33418-.80543,2.68115 16.76719,6.98285 34.99728,10.94591 53.67342,13.90392 .54029.0856.73027,2.28202 1.48806,3.69731 .50073.98274 4.00356,5.0609 3.3006,2.13321-.69031-2.87501 1.02342-8.41447-.62751-13.54851-2.66056-8.27376-8.81623-15.99873-8.56413-13.60009 .19733,1.8775.40862,3.50073.61217,4.95992 .12435.89147.55361,2.05748.0767,2.20286-12.62698,3.84945-47.67725-1.63661-49.15391-2.42977z" fill="#ff0"/>
</g>
<g transform="matrix(.3468,0,0,.34534,331.178,590.29092)">
<path d="m-7.94942,231.88627c-8.52254,5.70244-16.08899,12.06953-20.85739,18.43573-1.79901,2.40182-1.29049,5.53612-.32057,7.99653 .48494,1.2302 1.09425,2.33775 2.19987,3.11233 .55281.38729 1.31464.67513 2.11735.63234s1.55078-.44079 2.11933-.97119c9.33811-8.71154 22.39094-17.28963 34.33825-23.94155s22.98487-11.41572 27.60072-12.43412c.80062-.17664 1.588-.64391 2.05415-1.30139s.61917-1.4133.64713-2.09846c.0559-1.37031-.38322-2.63999-1.02456-3.87823s-1.4996-2.4108-2.58624-3.30769-2.52444-1.61312-4.13023-1.33276c-11.20186,1.95584-27.95598,9.58595-42.15783,19.08842z"/>
<path d="m40.11565,222.83395c-7.80806,1.51267-19.92318,6.96378-32.22075,13.96875s-24.59839,15.54679-32.25191,23.5c-1.16048,1.20591-1.50697,2.74537-1.5269,4.1875s.28266,2.86967.81019,4.15625 1.23795,2.47673 2.43058,3.3125c.59631.41789 1.37445.71598 2.24361.71875s1.73615-.33637 2.39942-.875c16.85368-13.6867 47.91821-29.91416 65.03356-33.5625 1.01374-.21609 1.96706-1.02248 2.36825-1.90625s.42502-1.72638.34278-2.53125c-.16448-1.60975-.80191-3.20223-1.65155-4.78125s-1.90164-3.10102-3.14729-4.28125-2.80131-2.29927-4.82999-1.90625z"/>
<path d="m34.76206,214.51179c-.11363.002-.23139.0119-.34375.0312-17.35709,2.99306-50.32939,20.5899-62.65625,36.84375-2.24508,2.96031.76331,10.959 3.5,8.4375 19.26735-17.7523 53.22257-34.58385 63.59375-36.84375 3.45312-.75245-.57116-8.54662-4.09375-8.46875zm6,10.375c-.11896-.00067-.22922.009-.34375.0312-14.70075,2.81449-49.16683,21.4515-64.125,36.8125-2.61696,2.68743.6531,10.79748 3.59375,8.4375 17.39409-13.95936 48.66015-30.17122 66.6875-33.96875 3.5357-.7448-2.12485-11.29176-5.8125-11.3125z" fill="url(#radialGradient7822)"/>
</g>
<path d="m324.75034,731.77464a.19454,.1873 0 0,0 -.0281.0135c-.60146.16319-1.25061.3616-1.82471.67568v.0135c-.3121.0888-.55816.24609-.77199.41892-.22801.1843-.43536.37403-.67373.4865a.19454,.1873 0 0,0 -.0842.0676c-.30342.45535-.79886.81097-1.17904,1.31083-.004.005-.0101.008-.014.0135-.42768.48617-.64695,1.08348-1.08078,1.41894a.19454,.1873 0 0,0 -.0421.0405c-.30308.44719-.8393.79584-1.17904,1.31083a.19454,.1873 0 0,0 -.014.0135c.012-.0259-.0168.0206-.0561.0676s-.0916.1188-.1544.18919c-.12562.14078-.27472.30994-.42108.4865s-.28182.35193-.36494.51352c-.0416.0808-.0847.15744-.0842.25676 .00027.0581.0373.12015.0842.17567l1.57205,7.93254a.19454,.1873 0 0,0 .1965.14865l9.53056-.32433a.19454,.1873 0 0,0 .18247-.13513c.0354-.10105.0513-.17948.0421-.27028s-.061-.19565-.14036-.24325c-.15871-.0952-.29718-.0506-.42108-.0405s-.24332.0167-.3088,0-.0853-.0187-.11229-.12162a.19454,.1873 0 0,0 -.0842-.12163c-.079-.0416-.29-.22413-.51934-.4054s-.48261-.36457-.78603-.44595c.0191-.0112.0327-.0149.0562-.027 .10812-.0561.25869-.12148.39301-.18919 .11335-.0571.20955-.13205.29476-.22973l.014.0135 .28072-.16216c.13147-.0675.27802-.14559.40705-.22974s.25402-.15671.29476-.33784c.0203-.0906-.017-.20336-.0842-.27027s-.1381-.10187-.23862-.13514a.19454,.1873 0 0,0 -.0842-.0134c-.31725.0193-.55627-.11129-.81409-.31081s-.5065-.46835-.8141-.66217c-.37217-.37949-.71583-.67802-.94042-1.09461a.19454,.1873 0 0,0 0-.027c-.37441-.53824-.7986-1.03113-.8141-1.60813a.19454,.1873 0 0,0 -.11229-.16216c-.21957-.1039-.30557-.31269-.37898-.5946-.0671-.25765-.1205-.55757-.23861-.83785 .00043-.0201-.0139-.0341-.014-.0541-.004-.008.004-.0188 0-.027-.006-.32177-.0668-.61587-.11229-.8919-.0496-.30128-.0679-.57685.0421-.85137a.19454,.1873 0 0,0 0-.027c.17206-.65372.17422-1.29534.40704-1.85138a.19454,.1873 0 0,0 .014-.054c.0133-.25465.14824-.54701.32284-.82434 .16542-.26277.35182-.51021.46319-.75677 .17246-.10281.34154-.22879.46319-.40541 .13708-.199.226-.44383.14037-.6892a.19454,.1873 0 0,0 -.21053-.13513z" fill="#fff"/>
<path d="m328.01896,746.8162c.23803-.70166-.76145.0459-.92103-.58332-.25625-.13948-.74369-.72248-1.24417-.85568-.6488-.26022.51128-.47545.68264-.75039 .24257-.19044 1.35098-.59311.69587-.81739-.74172.0467-1.15889-.65839-1.69983-1.01094-.37064-.39374-.73128-.71948-.97542-1.18787-.3568-.53051-.80739-1.06784-.82461-1.73063-.56677-.27739-.45346-1.07896-.70012-1.59809 .015-.65137-.32405-1.26638-.075-1.90944 .15941-.6264.14582-1.28617.39096-1.8917 .0314-.62571.63455-1.24657.81329-1.69201 .31499-.16848.66729-.60992.55534-.94166-.58049.1629-1.19379.37359-1.72959.67677-.57932.14263-.90129.66653-1.43018.92462-.32424.50327-.82704.86789-1.17444,1.3465-.3867.45051-.59191,1.08386-1.0749,1.47013-.3244.49504-.84985.83199-1.1494,1.30164-.0782.17402-1.33282,1.41655-.97056,1.54259l1.55118,8.02589z" fill="#fff"/>
<g transform="matrix(.3468,0,0,.34534,331.178,590.29092)">
<path d="m-1.42594,407.20521c-.45763,3.84202.11896,10.26591 7.47967,9.8083 7.50336-.46646 12.62093-9.73809 15.26675-16.90367 2.05643-5.56938-.0651-13.55413-10.14368-10.33-5.34177,1.70881-11.85922,11.18303-12.60274,17.42537z"/>
<path d="m9.90692,483.05239c-1.66075,5.89812-6.67166,11.13174-14.90159,11.13174s-14.9016-4.98385-14.9016-11.13174c0-2.51887-1.21773-11.88621 1.07091-23.29892 3.15489-15.73253 15.67837-20.87348 20.5364-20.87348 4.37294,0 6.08205-.98715 9.39276,12.72377 2.92007,12.09317-.41324,28.66558-1.19688,31.44863z"/>
<path d="m8.54638,481.24154c-1.40725,5.25191-5.65326,9.91212-12.62691,9.91212s-12.6269-4.4378-12.6269-9.91212c0-2.24289-1.03184-10.58393.90744-20.74625 2.6733-14.00885 13.28511-18.58656 17.40157-18.58656 3.70542,0 5.15364-.87899 7.95896,11.32974 2.47434,10.76823-.35015,25.52493-1.01416,28.00307z" fill="url(#radialGradient7824)"/>
<path d="m.07473,407.36131c-.39878,3.28757.10366,8.78443 6.51785,8.39286 6.53849-.39915 10.99799-8.33278 13.30358-14.46429 1.79199-4.76566-.0567-11.59813-8.83929-8.83928-4.65487,1.46222-10.33423,9.5692-10.98214,14.91071z" fill="#cb7d15"/>
<path d="m13.10696,441.91026c0,5.08599-4.98154,8.84088-11.12658,8.38677s-11.12658-4.94525-11.12658-10.03124 4.98154-8.84088 11.12658-8.38677 11.12658,4.94525 11.12658,10.03124z"/>
<path d="m11.63997,441.71935c0,3.90524-4.04208,6.7884-9.02824,6.43972s-9.02824-3.79717-9.02824-7.70241 4.04208-6.78841 9.02824-6.43973 9.02824,3.79718 9.02824,7.70242z" fill="#fff"/>
<path d="m1.17381,469.99313c-1.06929-2.09861-6.20073-3.51427-8.49508-.61882-.90021,1.13606.3517-.47086 4.08224-.34036s5.04375,2.19742 4.41284.95918z"/>
<path d="m1.75805,462.73071c-.72703-1.42687-4.21597-2.3894-5.77593-.42074-.61206.77242.23913-.32014 2.77558-.23142s3.42931,1.49406 3.00035.65216z"/>
<path d="m12.32019,390.45895c-1.01175.0737-2.06224.27418-3.18707.625-.71188.22203-1.33883.52293-1.80784,1.03125s-.70695,1.19063-.71565,1.78125c-.004.25097.57282,1.53467.91562,1.65291 1.27062.43828 3.87974-.91796 3.46649-.10691 .22791,4.34882-2.04256,6.68334-3.65628,10.3915-3.98196,9.15013-9.47326,21.25778-9.29425,31.875 .0172,1.02464.12333,2.1469.32422,3.1875s.42984,2.01057 1.19891,2.84375c.38453.41659.99159.77938 1.6817.84375s1.34129-.16284 1.88365-.5c1.08471-.67432 2.01781-1.8099 3.19178-3.6875 7.61982-12.18678 13.02632-27.57256 15.79975-39.6875 .53067-2.31806-.0668-4.92895-1.73817-7s-4.50479-3.50907-8.06286-3.25z"/>
<path d="m.07473,437.71845c-.0109,3.88007.92081,9.14948 5.35714,1.96429 7.40965-12.00084 12.86031-27.2974 15.71429-39.28572 1.02289-4.29673-2.59917-10.60589-10.53572-8.03571-1.45805.47218-4.49935,3.00285-4.25731,4.12927 .1956.91031 3.52111.29026 3.86398,1.7138 .50338,2.08992.7016,4.77434-.76738,8.17479-3.96423,9.17656-9.34667,21.20144-9.375,31.33928z" fill="#cb7d15"/>
</g>
</g>
</svg>
