<?xml version="1.0" encoding="UTF-8" standalone="no"?>
<!DOCTYPE svg PUBLIC "-//W3C//DTD SVG 20010904//EN" "http://www.w3.org/TR/2001/REC-SVG-20010904/DTD/svg10.dtd">
<svg viewBox="0 0 100 100" xmlns="http://www.w3.org/2000/svg">
<defs>
<linearGradient>
<stop offset="0"/>
<stop offset="1" stop-color="#fff"/>
</linearGradient>
</defs>
<path d="m56.78125,9.03125c.52923.45715.94354,1.05958 1.4375,1.5625-.66737-.08453-1.3396-.1382-2.03125-.15625-.6151-.35155-1.3451-.56878-2.15625-.65625 .19345-.17812.33268-.42222.53125-.59375-8.14862.8974-13.39474,4.30911-15.375,9.21875-.10812.22444-.19119.45795-.28125.6875-.1209.36877-.29095.70926-.375,1.09375-.22436.88851-.34357,1.7816-.25,2.71875 .00043,2.77285.76733,5.81504 2.53125,9.09375 .29898-.6788.60956-1.26509.90625-1.9375 2.86002,3.75785 8.01447,6.28125 13.9375,6.28125 5.97277,0 11.15552-2.56461 14-6.375 .28731.65131.58551,1.21774.875,1.875 6.42943-11.9508.65893-21.22566-13.75-22.8125zm-28.1875,19.5625c.53823.46493.96697,1.08152 1.46875,1.59375-.67618-.08777-1.3612-.13681-2.0625-.15625-.61638-.3611-1.33855-.56512-2.15625-.65625 .19345-.17812.33268-.42223.53125-.59375-8.13766.89619-13.38826,4.28863-15.375,9.1875-.11674.23985-.21641.47305-.3125.71875-.12561.38436-.28941.75485-.375,1.15625-.20793.86139-.30927,1.74968-.21875,2.65625 .00032,2.773.76721,5.81482 2.53125,9.09375 .29531-.67047.61319-1.242.90625-1.90625 2.86579,3.73758 8.00245,6.25 13.90625,6.25 3.43237,0 6.62091-.84013 9.25-2.28125l-.0625,5c-2.65757-.62853-5.55041-1.0625-8.75-1.0625-10.38198,0-18.8483,3.71727-19.34375,8.40625l-.1875,18.6875c13.16994.88807 25.65571.80048 39,.0625l-.125-18.75c-.01961-.18561-.14331-.3488-.1875-.53125 5.77646.16807 11.63021.18981 17.4375.03125-3.80059,1.53504-6.33265,3.68514-6.59375,6.15625l-.21875,18.6875c13.16994.88807 25.65572.76923 39,.03125l-.125-18.71875c-.49546-4.68898-8.96178-8.40624-19.34375-8.40625-.58811,0-1.08158.13276-1.65625.15625l-.03125-1.90625c.42064.02588.82105.09375 1.25.09375 5.99119,0 11.16151-2.60761 14-6.4375 .29279.66364.61122,1.23641.90625,1.90625 6.42943-11.9508.65894-21.22566-13.75-22.8125 .53823.46493.96697,1.08152 1.46875,1.59375-.67618-.08777-1.3612-.13681-2.0625-.15625-.62202-.36322-1.33019-.56717-2.15625-.65625 .19345-.17812.33268-.42222.53125-.59375-5.08588.5601-9.03495,2.08772-11.8125,4.34375-2.39825-.4874-4.98655-.78125-7.78125-.78125-4.37071,0-8.23025.75789-11.46875,1.875-1.188-6.03194-6.78004-10.26242-16.03125-11.28125z" fill-opacity=".5" fill-rule="evenodd"/>
<path d="m68.17986,20.44562c0,7.16394-7.31142,12.97817-16.32014,12.97817s-16.32013-5.81422-16.32013-12.97817 7.31142-12.97816 16.32013-12.97816 16.32014,5.81422 16.32014,12.97816z" fill="#955900" fill-rule="evenodd" stroke="#000" stroke-linejoin="round" stroke-width="1.25"/>
<path d="m52.30279,35.069c-10.38198,0-18.84157,3.73834-19.33702,8.42733l-.19528,18.68708c13.16994.88807 25.64246.7755 38.98675.03752l-.11744-18.7246c-.49545-4.68898-8.95503-8.42732-19.33701-8.42733z" fill="#0000d1" fill-rule="evenodd" stroke="#000" stroke-linejoin="round" stroke-width="1.25"/>
<path d="m50.79234,6.25586c-6.15177,5.31391-9.79984,13.83816-13.75455,22.81683-6.42943-11.9508-.65438-21.22999 13.75455-22.81683z" fill-rule="evenodd" stroke="#000" stroke-linejoin="round" stroke-width="1.25"/>
<path d="m53.0068,6.09061c6.15177,5.31391 9.79985,13.83816 13.75455,22.81683 6.42943-11.9508.65438-21.22999-13.75455-22.81683z" fill-rule="evenodd" stroke="#000" stroke-linejoin="round" stroke-width="1.25"/>
<path d="m49.71332,17.27547c0,1.3574-1.25904,2.45906-2.81035,2.45906s-2.81035-1.10166-2.81035-2.45906 1.25904-2.45906 2.81035-2.45906 2.81035,1.10166 2.81035,2.45906z" fill="#fff" fill-rule="evenodd" stroke="#000" stroke-width="1.25"/>
<path d="m44.91103,18.86972c-.15451-1.91735 4.32632-1.76986 3.86279.14749-1.08158,1.17991-3.55376.58995-3.86279-.14749z" fill="none" stroke="#000" stroke-linejoin="round" stroke-width="1.25"/>
<path d="m59.30974,16.5099c0,1.3574-1.25904,2.45906-2.81035,2.45906s-2.81035-1.10166-2.81035-2.45906 1.25903-2.45906 2.81035-2.45906 2.81035,1.10166 2.81035,2.45906z" fill="#fff" fill-rule="evenodd" stroke="#000" stroke-width="1.25"/>
<path d="m54.55313,17.96398c-.15451-1.91735 4.32632-1.76986 3.86278.14749-1.08158,1.17991-3.55376.58995-3.86278-.14749z" fill="none" stroke="#000" stroke-linejoin="round" stroke-width="1.25"/>
<path d="m43.98397,25.6542c2.31767,3.98219 13.597,2.94977 15.14212-.58995" fill="none" stroke="#000" stroke-width="1.25"/>
<path d="m50.93698,36.10438c-.77256-.29781-14.98761.79417-16.84174,6.75042-.30902,2.18396-.46354,18.56364-.46354,18.56364l19.46844.6949c9.11617-5.26135-25.80341,0-2.16316-26.00895z" fill="#fff" fill-opacity=".5" fill-rule="evenodd"/>
<path d="m53.40916,8.25054c-5.56241-6.34201-31.52033,8.84932-11.43384,21.09087 8.03459,2.94977-6.48948-24.6306 11.43384-21.09087z" fill="#fff" fill-opacity=".25" fill-rule="evenodd"/>
<path d="m39.9717,40.03111c0,7.16394-7.31142,12.97816-16.32013,12.97816s-16.32013-5.81422-16.32013-12.97816 7.31142-12.97816 16.32013-12.97816 16.32013,5.81422 16.32013,12.97816z" fill="#ffd5b7" fill-rule="evenodd" stroke="#000" stroke-linejoin="round" stroke-width="1.25"/>
<path d="m24.09464,54.65449c-10.38198,0-18.84157,3.73834-19.33702,8.42733l-.19528,18.68708c13.16994.88807 25.64246.7755 38.98675.03752l-.11743-18.7246c-.49545-4.68898-8.95503-8.42732-19.33701-8.42733z" fill="#005900" fill-rule="evenodd" stroke="#000" stroke-linejoin="round" stroke-width="1.25"/>
<path d="m22.58418,25.84135c-6.15177,5.31391-9.79984,13.83816-13.75455,22.81683-6.42943-11.9508-.65438-21.22999 13.75455-22.81683z" fill="#ffbf00" fill-rule="evenodd" stroke="#000" stroke-linejoin="round" stroke-width="1.25"/>
<path d="m24.79864,25.6761c6.15177,5.31391 9.79985,13.83816 13.75455,22.81683 6.42943-11.9508.65438-21.22999-13.75455-22.81683z" fill="#ffbf00" fill-rule="evenodd" stroke="#000" stroke-linejoin="round" stroke-width="1.25"/>
<path d="m21.50516,36.86096c0,1.3574-1.25904,2.45906-2.81035,2.45906s-2.81035-1.10166-2.81035-2.45906 1.25903-2.45906 2.81035-2.45906 2.81035,1.10166 2.81035,2.45906z" fill="#fff" fill-rule="evenodd" stroke="#000" stroke-width="1.25"/>
<path d="m16.70288,38.45521c-.15451-1.91735 4.32632-1.76986 3.86278.14749-1.08158,1.17991-3.55376.58995-3.86278-.14749z" fill="none" stroke="#000" stroke-linejoin="round" stroke-width="1.25"/>
<path d="m31.10158,36.09539c0,1.3574-1.25904,2.45906-2.81035,2.45906s-2.81035-1.10166-2.81035-2.45906 1.25904-2.45906 2.81035-2.45906 2.81035,1.10166 2.81035,2.45906z" fill="#fff" fill-rule="evenodd" stroke="#000" stroke-width="1.25"/>
<path d="m26.34497,37.54947c-.15451-1.91735 4.32632-1.76986 3.86278.14749-1.08158,1.17991-3.55376.58995-3.86278-.14749z" fill="none" stroke="#000" stroke-linejoin="round" stroke-width="1.25"/>
<path d="m15.77581,45.23969c2.31767,3.98219 13.597,2.94977 15.14212-.58995" fill="none" stroke="#000" stroke-width="1.25"/>
<path d="m22.72882,55.68987c-.77256-.29781-14.98761.79417-16.84174,6.75041-.30902,2.18396-.46353,18.56364-.46353,18.56364l19.46844.6949c9.11617-5.26135-25.80341,0-2.16316-26.00895z" fill="#fff" fill-opacity=".5" fill-rule="evenodd"/>
<path d="m25.201,27.83603c-5.56241-6.34201-31.52033,8.84932-11.43384,21.09087 8.03459,2.94977-6.48948-24.6306 11.43384-21.09087z" fill="#fff" fill-opacity=".25" fill-rule="evenodd"/>
<path d="m89.29493,45.68521c0,7.16394-7.31142,12.97816-16.32013,12.97816s-16.32013-5.81422-16.32013-12.97816 7.31142-12.97816 16.32013-12.97816 16.32013,5.81422 16.32013,12.97816z" fill="#ffeeb7" fill-rule="evenodd" stroke="#000" stroke-linejoin="round" stroke-width="1.25"/>
<path d="m73.41786,60.30859c-10.38198,0-18.84157,3.73834-19.33702,8.42733l-.19528,18.68708c13.16994.88807 25.64246.77551 38.98674.03752l-.11743-18.7246c-.49545-4.68898-8.95504-8.42732-19.33701-8.42733z" fill="#8200d1" fill-rule="evenodd" stroke="#000" stroke-linejoin="round" stroke-width="1.25"/>
<path d="m71.90741,31.49546c-6.15177,5.31391-9.79984,13.83816-13.75455,22.81683-6.42943-11.9508-.65438-21.22999 13.75455-22.81683z" fill-rule="evenodd" stroke="#000" stroke-linejoin="round" stroke-width="1.25"/>
<path d="m74.12187,31.3302c6.15177,5.31391 9.79985,13.83816 13.75455,22.81683 6.42943-11.9508.65438-21.22999-13.75455-22.81683z" fill-rule="evenodd" stroke="#000" stroke-linejoin="round" stroke-width="1.25"/>
<path d="m70.82839,42.51507c0,1.3574-1.25903,2.45906-2.81035,2.45906s-2.81035-1.10166-2.81035-2.45906 1.25903-2.45906 2.81035-2.45906 2.81035,1.10166 2.81035,2.45906z" fill="#fff" fill-rule="evenodd" stroke="#000" stroke-width="1.25"/>
<path d="m66.02611,44.10931c-.15451-1.91735 4.32632-1.76986 3.86279.14749-1.08158,1.17991-3.55376.58995-3.86279-.14749z" fill="none" stroke="#000" stroke-linejoin="round" stroke-width="1.25"/>
<path d="m80.42481,41.74949c0,1.3574-1.25904,2.45906-2.81035,2.45906s-2.81035-1.10166-2.81035-2.45906 1.25903-2.45906 2.81035-2.45906 2.81035,1.10166 2.81035,2.45906z" fill="#fff" fill-rule="evenodd" stroke="#000" stroke-width="1.25"/>
<path d="m75.6682,43.20357c-.15451-1.91735 4.32632-1.76986 3.86279.14749-1.08158,1.17991-3.55376.58995-3.86279-.14749z" fill="none" stroke="#000" stroke-linejoin="round" stroke-width="1.25"/>
<path d="m65.09904,50.89379c2.31767,3.98219 13.597,2.94977 15.14212-.58995" fill="none" stroke="#000" stroke-width="1.25"/>
<path d="m72.05205,61.34398c-.77256-.29781-14.98761.79417-16.84174,6.75042-.30902,2.18396-.46354,18.56364-.46354,18.56364l19.46844.6949c9.11617-5.26135-25.80341,0-2.16316-26.00895z" fill="#fff" fill-opacity=".5" fill-rule="evenodd"/>
<path d="m74.52423,33.49013c-5.56241-6.34201-31.52033,8.84932-11.43384,21.09087 8.03459,2.94977-6.48948-24.6306 11.43384-21.09087z" fill="#fff" fill-opacity=".25" fill-rule="evenodd"/>
</svg>
