<?xml version="1.0" encoding="UTF-8" standalone="no"?>
<svg width="800" xmlns="http://www.w3.org/2000/svg" xmlns:xlink="http://www.w3.org/1999/xlink" height="800">
 <defs>
  <filter id="filter6109">
   <feGaussianBlur id="feGaussianBlur6111" stdDeviation="3.618982"/>
  </filter>
  <filter id="filter11963" y="-.033278" width="1.201" height="1.0666" x="-.10050">
   <feGaussianBlur id="feGaussianBlur11965" stdDeviation="1.172123"/>
  </filter>
  <filter id="filter21737" y="-0.138" width="1.0611" height="1.276" x="-.030531">
   <feGaussianBlur id="feGaussianBlur21739" stdDeviation="3.141398"/>
  </filter>
  <filter id="filter11991">
   <feGaussianBlur id="feGaussianBlur11993" stdDeviation="2.098048"/>
  </filter>
  <filter id="filter7092">
   <feGaussianBlur id="feGaussianBlur7094" stdDeviation="3.412334"/>
  </filter>
  <filter id="filter13016">
   <feGaussianBlur id="feGaussianBlur13018" stdDeviation="2.469279"/>
  </filter>
  <filter id="filter3191">
   <feGaussianBlur id="feGaussianBlur3193" stdDeviation="2.297658"/>
  </filter>
  <linearGradient id="linearGradient14925" y2="278.29" gradientUnits="userSpaceOnUse" x2="329.73" y1="272.32" x1="505.63">
   <stop id="stop14921" stop-color="#ff6669" offset="0"/>
   <stop id="stop14923" stop-color="#80090d" offset="1"/>
  </linearGradient>
  <linearGradient id="linearGradient5102" y2="429.58" gradientUnits="userSpaceOnUse" x2="168.59" y1="395.75" x1="127.49">
   <stop id="stop4123" stop-color="#f6c699" offset="0"/>
   <stop id="stop4125" stop-color="#d38d5f" offset="1"/>
  </linearGradient>
  <linearGradient id="linearGradient11985" y2="380.14" gradientUnits="userSpaceOnUse" x2="567.54" y1="352.71" x1="615.57">
   <stop id="stop11981" stop-color="#acf" offset="0"/>
   <stop id="stop11983" stop-color="#acf" stop-opacity="0" offset="1"/>
  </linearGradient>
  <linearGradient id="linearGradient7102" y2="476.76" gradientUnits="userSpaceOnUse" x2="362.81" y1="442.43" x1="272.91">
   <stop id="stop7098" stop-color="#d38d5f" offset="0"/>
   <stop id="stop7100" stop-color="#4a3b1d" stop-opacity="0" offset="1"/>
  </linearGradient>
 </defs>
 <g fill-rule="evenodd">
  <path id="path3197" fill="#e3b88f" d="m24.638 342.12c23.854 12.631 49.288 23.052 75.977 29.118 22.059 5.0136 12.601-0.21811 26.701-2.8293 11.751-2.1761 22.419-6.7382 35.071-8.2522 37.735-4.5154 77.923 1.9258 116.12 0.23578 22.912-1.0138 32.308-9.3968 50.632-17.624 22.443-10.077 49.99-4.7677 73.561-11.789 29.52-8.7932 55.178-16.085 85.762-20.218 29.307-3.9604 57.896-13.44 87.236-15.856 26.336-2.1689 52.78 6.8964 79.396 6.8964 27.17 0 50.04-4.3033 77.392-0.88419 13.425 1.6782 28.964 1.9345 42.026 0.41263 5.4011-0.62927 12.689 16.995 13.97 20.218 7.4018 18.624-8.5795 44.964-10.963 62.952-3.0555 23.055-2.119 46.123-3.4187 69.259-1.2481 22.217-0.13422 39.654 2.5346 61.361 1.9551 15.902 4.0464 32.05 8.311 47.509 4.3179 15.653 4.6901 15.35-12.083 21.691-29.842 11.282-75.903 2.2399-107.22 2.2399-46.731 0-93.507 1.4146-140.17 1.4146-37.59 0-75.157 1.8862-112.76 1.8862-30.842 0-61.614 0.94312-92.481 0.94312-40.297 0-80.792-6.366-121.3-6.366-33.033 0-65.8 1.5325-98.788 1.5325-21.477 0-44.748 1.0276-66.075-1.5915-18.085-2.221-21.084 2.8151-26.171-15.561-4.798-17.335 6.187-52.405 11.081-69.082 6.9489-23.678-10.455-49.317-11.317-73.798-0.61433-17.447 1.6347-34.516 4.8333-51.576 1.5096-8.0515 3.509-16.015 5.0691-24.108 0.83805-4.3475 3.4134-5.5637 7.0732-8.1342z"/>
  <path id="path4184" fill="#aef" d="m-84.465 317.54"/>
  <path id="path6348" d="m149.62 342.3c-24.026 37.503-28.898 55.344-38.405 83.555-9.5879 28.452-13.187 44.304-16.836 94.186 30.352 20.486 66.695 28.5 115.04 28.85 48.341 0.35059 90.744-7.0981 130.67-32.112-10.866-35.922-17.779-62.186-28.824-90.372-11.044-28.186-26.312-70.405-42.991-87.97-18.023-5.3466-32.282-10.038-61.872-9.8132-29.225 0.22147-36.284 4.1838-56.779 13.676z" stroke="#000" stroke-width=".5" fill="#d38d5f"/>
  <g id="g10996">
   <path id="rect2171" opacity=".99" d="m600.28 51.174c-6.2518-0.95752-14.281 7.0285-15.948 13.469l-14.481 55.964c-1.6666 6.4408 1.7756 16.184 8.0274 17.141l31.524 4.8282-48.537 187.58-33.306-5.101c-13.578-2.0796-27.435 7.5165-31.055 21.505l-14.126 54.595c-3.6195 13.988 4.413 26.905 17.991 28.984l96.324 14.753c13.578 2.0795 27.427-7.4854 31.047-21.474l14.126-54.595c3.6195-13.988-4.405-26.936-17.983-29.015l-33.849-5.1843 48.537-187.58 33.457 5.1242c6.2518 0.95752 12.892-7.2413 14.559-13.682l14.481-55.964c1.6666-6.4408-0.38654-15.971-6.6384-16.929l-94.15-14.42zm10.015 22.686l61.871 9.476c8.083 1.238 8.8859 3.2867 6.7313 11.614l-6.3453 22.947c-2.1548 8.3273-3.3085 8.9273-11.392 7.6894l-59.08-8.7784c-8.083-1.238-9.5197-0.90327-7.365-9.2306l6.8744-23.656c2.1547-8.3273 0.62256-11.3 8.7056-10.062z" stroke-width="5" fill="#2a7fff"/>
   <path id="path5170" stroke-width="3" fill="#e3b88f" d="m484.04 388.7c3.254 0.10724 7.3976 0.7655 10.815 1.8068 6.1407 1.8712 10.958 4.3588 16.126 7.803 5.1725 3.4475 9.3034 4.4289 13.448 9.2253 4.6022 5.3257 13.73 2.8588 19.925 4.4055 4.421 1.1038 7.8846 4.3602 11.831 6.4478 6.7872 3.5906 10.713 5.1051 19.089 5.2758 8.3897 0.17099 16.123 2.897 24.473 3.2969 6.8207 0.32669 12.755 3.3757 19.359 4.3872 3.4154 0.5231 8.3032 0.47543 9.2966 2.9554 0.64966 1.6218-2.851 2.5737-4.2359 3.905-2.5908 2.4907-4.8344 4.3431-7.9458 6.0855-3.162 1.7708-6.3309 2.6969-9.5956 4.1508-3.8289 1.7051-8.9001 1.16-12.723 0.95047-5.8216-0.31912-11.532-0.82272-17.241-1.6971-5.6785-0.86972-11.385-2.251-16.981-3.4212-5.6583-1.1834-11.462-1.8785-17.193-2.7563-5.8494-0.8959-11.734-1.7561-17.591-2.6532-7.1347-1.0927-14.171-2.7609-21.415-3.4167-5.5378-0.50128-11.129-1.3091-16.517-2.3929-3.894-0.78342-6.1308-2.1158-8.1324-5.4028-1.9384-3.1831-1.5807-7.4181-1.522-11.2 0.050293-3.2406 0.38-7.1736 1.0639-10.422 0.83423-3.9616 1.7459-7.6922 2.9798-11.619 0.48407-1.5406 1.0432-3.0865 1.6543-4.5466 0.19751-0.47205 0.6882-0.77887 1.0323-1.1683z"/>
  </g>
  <path id="path7321" stroke-width="10" fill="#c83737" d="m494.94 419.86c17.253-55.657 20.59-79.816 29.382-134.37 0.18256-1.1328-10.683-7.5411 0.67102 0.293 11.567-12.447 8.2717-27.934 6.843-28.806-27.706-16.904-64.961-24.03-109.03-20.218-44.071 3.8127-82.712 13.505-116.3 40.425-5.8241 4.6677-9.9014 15.352 8.6638 20.362-4.5276-3.5889 56.588 109.05 72.007 135.98 16.877 3.3304 30.268 6.3853 57.207 3.6517 26.606-2.6999 32.698-6.913 50.559-17.313z"/>
  <g stroke-width="5">
   <rect id="rect11012" opacity=".99" transform="matrix(.95208 .30586 -.25329 .96739 0 0)" rx="4.1273" ry="4.5364" height="197.01" filter="url(#filter13016)" width="8.2545" y="-56.373" x="648.44" fill="#04a"/>
   <rect id="rect13021" opacity=".99" transform="matrix(.95208 .30586 -.25329 .96739 -21.977 -2.924)" rx="4.1273" ry="4.5364" height="197.01" filter="url(#filter13016)" width="8.2545" y="-56.373" x="648.44" fill="#80b3ff"/>
  </g>
  <g stroke-width="10">
   <path id="path4119" filter="url(#filter6109)" fill="url(#linearGradient5102)" d="m148.92 346.57c-6.8102 8.2698-9.6012 18.181-15.216 27.106-4.4913 11.708-11.806 23.404-14.79 35.773-4.685 13.464-9.716 27.99-12.267 42.024-4.5024 19.428-7.3722 38.798-5.158 58.95 0.24275 3.4723-0.66694 13.033 2.6688 5.2016 3.9573-8.1694 10.87-13.955 17.186-20.186 10.505-10.618 19.072-22.9 27.513-35.147 5.3022-8.8238 0.003754-25.657 6.4392-33.743 7.398-10.152 14.429-26.448 22.34-36.244 7.3882-10.05 21.229-8.8084 28.823-18.727 2.9917-4.6004 10.046-14.474 9.0479-16.541-7.694 3.5084-15.711-2.046-23.607-2.1833-12.903-2.0402-27.703-4.3959-40.068-8.8672-1.3943 0.31064-1.8446 1.8232-2.9114 2.5827z"/>
   <path id="path6113" filter="url(#filter7092)" fill="url(#linearGradient7102)" d="m243.63 544.02c3.6424-2.5643 12.31-2.696 17.993-4.3718 4.8603-1.4332 9.4709-3.025 14.688-3.3054 5.3242-0.28626 8.9352-2.9786 13.888-4.425 9.4815-2.769 18.612-6.4103 28.096-9.2233 3.909-1.1595 7.9199-2.5997 11.729-4.0785 2.0542-0.79755 2.3227-1.603 2.7456-2.0259 1.3011-1.3012-1.244-10.242-1.5727-11.782-1.5143-7.0936-4.698-13.718-6.8507-20.632-2.1535-6.9174-5.1235-13.386-7.757-20.206-2.9894-7.7419-5.1943-15.793-7.7037-23.698-2.5659-8.0827-5.2258-15.99-8.8766-23.618-3.7204-7.773-7.3284-15.584-11.062-23.351-2.9722-6.1823-5.2552-12.791-8.5034-18.793-2.1204-3.9183-1.5051 1.8046-2.4524 4.5316-2.7921 8.0381-9.9254 13.525-14.448 20.446-4.6394 7.0999 4.0204 17.533 0.2568 25.127-4.1258 8.3255 3.7953 20.055 0.24899 28.635-4.1984 10.158-14.795 28.963-15.549 39.895-0.80917 11.733-28.093 26.74-26.661 38.342 0.88243 7.1478 25.74 1.3397 18.806 2.8584-32.946 7.2158 0.47707 4.3746 0.74638 5.7846 0.40289 2.1093 0.59557 1.8997 2.2391 3.8919z"/>
   <path id="path9044" fill-opacity="0" d="m697.28 86.564c-0.1615 0-0.1615 0 0 0z"/>
   <g fill="#0055d4">
    <path id="path9046" filter="url(#filter11963)" d="m696.89 75.482c-2.6064-0.71237-2.9042 0.17516-4.017 3.0683-2.082 5.4132-2.9197 11.992-4.8648 17.703-1.8353 5.3891-2.518 10.994-4.2794 16.432-1.4846 4.583-2.3276 9.3944-3.0077 14.11-0.46979 3.2572-2.1118 7.01-3.0279 10.255-0.48395 1.714-0.61725 3.4296-1.09 5.1273-0.29742 1.0682-0.77802 1.6678-0.98908 2.7655-0.17133 0.89078 2.1158 0.72624 2.4626 0.74689 2.0178 0.12012 2.891-4.2222 3.3508-5.4906 0.93366-2.5756 2.3317-4.9866 3.3307-7.5294 1.635-4.162 3.1706-8.282 4.1381-12.657 0.87445-3.954 1.2328-7.7762 2.5232-11.647 1.0738-3.2216 2.1431-6.4125 2.9673-9.7095 0.86896-3.4759 2.0477-6.6782 2.6646-10.234 0.43268-2.4942 1.2923-4.8732 1.6956-7.3881 0.25464-1.588 0.18536-2.3293-0.20184-3.9363-0.31091-1.2901 1.872 1.0521-1.6553-1.6149z"/>
    <path id="path11967" filter="url(#filter11963)" d="m600.47 64.35c-2.6406-0.30729-2.8838 0.36674-3.8183 2.5756-1.7485 4.1328-2.1865 9.0165-3.7806 13.356-1.5042 4.0949-1.8464 8.2533-3.2738 12.377-1.2032 3.4761-1.7531 7.0668-2.1465 10.574-0.27173 2.4225-1.6818 5.3039-2.3992 7.7538-0.37891 1.2942-0.40832 2.5608-0.7771 3.8421-0.23206 0.80621-0.6748 1.2845-0.81897 2.1052-0.11694 0.66601 2.1525 0.35774 2.4994 0.34436 2.0182-0.077812 2.6266-3.3276 3.0083-4.2937 0.77515-1.9617 2.0231-3.8411 2.8653-5.7842 1.3785-3.1803 2.6604-6.3218 3.3607-9.6031 0.633-2.9656 0.75964-5.7925 1.8122-8.7317 0.87592-2.446 1.7491-4.8692 2.3716-7.3499 0.65637-2.6153 1.6379-5.0558 2.0383-7.7092 0.2807-1.861 0.99402-3.6728 1.2443-5.5465 0.15802-1.1831 0.04425-1.72-0.4386-2.8643-0.38763-0.91867 1.9291 0.61624-1.7471-1.046z"/>
   </g>
   <path id="path11969" filter="url(#filter11963)" fill="#80b3ff" d="m592.52 57.368c-2.6065-0.71237-2.9043 0.17518-4.017 3.0683-2.0819 5.4132-2.9197 11.992-4.8648 17.703-1.8354 5.389-2.5181 10.994-4.2794 16.432-1.4846 4.583-2.3275 9.3944-3.0077 14.11-0.46979 3.2572-2.1118 7.01-3.0278 10.255-0.48395 1.714-0.61731 3.4296-1.09 5.1273-0.29748 1.0682-0.77802 1.6678-0.98914 2.7655-0.17133 0.89078 2.1158 0.72624 2.4626 0.74689 2.0178 0.12011 2.891-4.2222 3.3509-5.4906 0.93366-2.5756 2.3317-4.9866 3.3306-7.5294 1.635-4.162 3.1706-8.282 4.1381-12.657 0.87439-3.954 1.2328-7.7762 2.5232-11.647 1.0738-3.2216 2.1431-6.4125 2.9674-9.7095 0.86896-3.4759 2.0476-6.6782 2.6645-10.234 0.43268-2.4942 1.2923-4.8732 1.6956-7.3881 0.2547-1.588 0.18536-2.3293-0.20184-3.9363-0.31085-1.2901 1.872 1.0521-1.6552-1.6149z"/>
   <path id="path11973" filter="url(#filter11963)" fill-opacity="0" d="m687.11 80.655c-2.6407-0.30728-2.8838 0.36674-3.8184 2.5756-1.7484 4.1328-2.1865 9.0165-3.7806 13.356-1.5042 4.0949-1.8464 8.2533-3.2739 12.377-1.2031 3.4761-1.753 7.0668-2.1464 10.574-0.27179 2.4225-1.6818 5.3039-2.3992 7.7538-0.37897 1.2942-0.40832 2.5608-0.7771 3.8421-0.23206 0.80621-0.6748 1.2845-0.81903 2.1052-0.11694 0.66602 2.1525 0.35774 2.4994 0.34436 2.0182-0.077805 2.6266-3.3276 3.0084-4.2937 0.77515-1.9617 2.0231-3.8411 2.8653-5.7842 1.3785-3.1803 2.6603-6.3218 3.3607-9.6031 0.633-2.9656 0.75964-5.7925 1.8122-8.7317 0.87592-2.446 1.749-4.8692 2.3716-7.3499 0.65637-2.6153 1.6379-5.0558 2.0383-7.7092 0.2807-1.861 0.99396-3.6728 1.2443-5.5465 0.15802-1.1831 0.04425-1.72-0.43866-2.8643-0.38763-0.91867 1.9291 0.61623-1.747-1.046z"/>
   <path id="path11977" filter="url(#filter11991)" fill="url(#linearGradient11985)" d="m532.32 338.28c12.038 0.66412 27.182 4.1982 40.255 6.2732 15.372 2.4401 31.798 5.128 46.782 9.4733 2.9254 0.84836 3.7091-0.3862 5.2826 2.4382 1.8597 3.3381 0.29773 12.675-0.48254 16.305-1.5433 7.1799-1.621 14.56-3.2508 21.766-1.2132 5.3636-3.041 10.661-5.8414 15.416-2.446 4.1537-5.9542 3.2211-10.235 1.6255-7.1349-2.6594-13.778-8.1431-20.445-11.886-5.6457-3.1696-11.61-7.1752-16.711-11.15-6.9771-5.4357-13.861-11.639-20.013-18.032-4.5626-4.7416-9.3932-12.236-12.47-18.032-2.2286-4.1982-2.3114-6.6245-2.0318-11.378 0.057556-0.97867-0.55872-1.8794-0.83814-2.8192z"/>
  </g>
  <path id="path13943" stroke-width="7.5" fill="url(#linearGradient14925)" d="m314.4 279.31c-0.54733-3.656 20.36-13.668 58.973-30.697 37.542-7.9063 30.067-6.0318 58.914-9.1905 29.432 0.66234 22.63-2.1812 47.524 2.1815 15.617 3.2197 26.902 6.4192 39.312 12.752 10.158 4.8902 8.4181 23.34-1.6355 28.441-12.78 11.768-26.116 18.521-41.793 25.76-7.9922 4.2258-34.974 9.2884-44.012 8.4825-22.98 0.80115-38.168 1.3472-60.398-6.8416-23.512-7.2852-56.048-25.299-56.885-30.889z"/>
  <path id="path20766" filter="url(#filter21737)" fill="#910003" d="m318.64 298.6c2.2529-0.16113 4.6634 1.6312 6.7439 2.9627 2.707 1.7325 5.5249 2.5927 8.654 3.5474 4.0929 1.2487 8.383 3.1338 11.928 5.2432 1.535 0.91324 3.2745 2.5854 5.3015 3.5669 3.6819 1.7828 7.5777 4.0628 11.578 5.0872 1.2087 0.30957 2.7326 1.0603 4.0736 1.4814 4.5441 1.4266 9.3758 1.5762 13.936 2.6898 4.6456 1.1344 9.7131 1.0659 14.462 1.9686 5.5004 1.0455 11.342 1.362 16.918 1.5983 3.2301 0.13687 6.9338 0.098633 9.9794-0.33136 4.9996-0.70581 10.062-0.38342 15.066-1.15 4.4223-0.67731 9.4952-1.9038 14.423-2.3195 3.5237-0.29718 6.0262 0.50616 8.1862-2.0466 1.8774-2.2188 9.5101-2.2093 12.318-2.9627 3.0331-0.81375 6.461-3.3783 9.0828-5.1262 2.5783-1.7189 5.8252-2.999 8.615-4.3661 2.6962-1.3212 5.4215-2.5207 8.0888-3.8982 2.9368-1.5168 5.9668-3.0097 8.7904-4.6974 2.9629-1.771 5.4803-4.5184 8.4006-6.4126 1.6338-1.0598 3.5327-1.8807 5.2041-2.8652 1.4913-0.87842 2.9519-2.3885 3.9761-3.6254 0.2655-0.32059-0.46777 0.68869-0.70166 1.033-0.51959 0.76492-1.1014 1.9697-1.5593 2.9237-0.763 1.5896-0.83588 1.9549-2.4364 3.0796-2.2681 1.5938-4.5965 3.2318-6.8413 4.8923-2.939 2.1741-5.7955 4.3382-8.8099 6.4126-2.8583 1.967-5.662 3.9554-8.5955 5.8279-0.59558 0.38016-1.1954 0.75366-1.7932 1.1305-3.4617 2.1824-6.087 4.2584-10.096 5.3211-3.5713 0.94662-6.1581 3.3448-9.5506 4.7754-4.2098 1.7753-8.7114 3.1386-13.059 4.522-2.6984 0.85861-4.6471 2.5454-7.4845 2.9237-6.5085 0.8678-13.414 0.79852-19.939 0.097443-1.9525-0.20978-3.893 0.19745-5.6134 0.87711-7.1204 2.813-17.993 1.2748-25.475 0.81863-4.3049-0.26248-8.5445-0.21848-12.825-0.66269-6.9794-0.7243-14.265-1.5881-20.953-3.7618-4.2986-1.3971-8.3876-2.8134-12.377-4.8533-5.5042-2.8147-11.992-3.8603-17.678-6.4516-1.0359-0.47202-0.59055-0.51926-1.1305-0.99405-3.4265-1.5615-6.6277-3.5911-9.726-5.7304-1.5906-1.0983-2.9188-2.6075-4.6778-3.6059-2.0422-1.1591-3.3304-2.5606-3.6058-4.7364-0.21698-1.7143 0.3996-5.9933-0.7991-2.183z"/>
  <path id="path2218" filter="url(#filter3191)" fill="#a91819" d="m512.24 314.05c-0.23486 0-0.23486 0 0 0 1.8168 0-4.6486 7.6051-5.2492 17.615-0.54971 9.162-6.8888 20.73-9.5472 29.734-1.9405 6.5726-3.8374 13.24-6.447 19.518-3.1489 7.5745-6.7982 14.105-11.59 20.715-3.2399 4.4689-5.5599 9.274-9.6529 13.07-4.9743 4.614-8.9615 10.211-14.268 14.444-4.8609 3.8778-3.6084 3.7798 1.5149 2.607 5.6852-1.3014 11.209-3.2139 16.628-5.4959 4.099-1.7259 8.8339-3.1168 13.105-4.2628 3.1932-0.85672 4.7802-1.4434 6.5879-3.5583 1.6918-1.9791 2.0996-8.4791 3.0298-11.098 2.6768-7.5349 3.7615-14.684 5.0378-22.512 1.2339-7.568 5.045-14.743 6.8346-22.089 1.7769-7.2946 4.4304-14.328 6.6232-21.49 1.8267-5.9673 1.1874-9.8022 0.31702-15.677-0.52087-3.516 1.4808-8.1551 1.2683-11.732-0.023499-0.39545-0.16443-0.77508-0.24664-1.1626"/>
  <g fill="#d38d5f">
   <path id="path3195" d="m353.72 408.37v0c0 7.6486 15.593-3.0489 22.929-0.88416 10.456 3.0856 14.933 5.5506 19.923 15.031 6.3825 12.127 18.046 14.028 30.709 17.447 10.138 2.7372-2.4192 7.9092-6.4248 8.6058-10.774 1.8739-22.15 0.012909-33.126 0.94312-16.12 1.3662-19.577-25.954-23.341-35.366-1.8887-4.7219-13.303-6.6972-16.74-7.8985-2.0237-0.70734 4.0794 1.3291 6.0711 2.122z"/>
   <path id="path4168" d="m558.84 417.98c2.1612-0.078583 4.3224-0.15717 6.4837-0.23578 9.8106-0.35675 21.469 2.6386 31.004 4.8923 9.3616 2.2128 13.854 7.1819 20.571 13.498 5.5624 5.2304 22.787 6.1327 6.6606 4.244-15.485-1.8136-30.932-0.60666-47.036-3.2419-10.587-1.7324-18.241 0.15491-26.171 6.0123-1.4056 1.0382 3.5217-15.988 4.1849-17.978 0.8833-2.6501 2.8686-4.7941 4.3029-7.1912"/>
   <path id="path4170" d="m701.89 471.85c7.1125-2.514 9.2855 12.058 15.124 16.836 11.969 9.7946 17.606 4.2819 11.462 13.188-1.7503 2.5369-42.715-6.4792-47.875-7.474-22.498-4.3376 2.9794-15.684 8.6775-17.064 3.795-0.91916 23.416-11.475 12.612-5.4857z"/>
   <path id="path4172" d="m411.48 492.84c12.76-7.3368 36.748-11.068 55.465-12.437 2.0621-0.15091 4.126-0.27508 6.189-0.41263 20.974-1.3983 0.27768-0.49152-15.915 9.3131-12.569 7.6108-44.797 4.9608-50.927-4.3029-0.14746-0.2229-0.43225-0.31439-0.64838-0.47156"/>
   <path id="path4174" d="m40.081 462.42c-2.5479-3.8508 40.553-5.666 48.392-5.246 12.479 0.66852 6.3944-2.8737 0.58942 1.3557-7.5184 5.4778-17.401 5.8266-24.697 11.376-2.8279 2.1508-15.009-3.0084-18.921-4.0082-1.6326-0.41721-20.07-7.3479-5.3638-3.4777z"/>
   <path id="path4176" d="m266.48 557.73c-4.463-1.1406 32.303-7.7434 62.597-2.063 12.734 2.3876 68.294 13.383 34.482-14.795-1.1878-0.98987-26.576 7.8535-31.77 7.368-15.932-1.489-40.429-5.5939-54.64 0-4.8356 1.9034-22.904 15.171-10.669 9.49z"/>
   <path id="path4180" d="m371.46 419.75c-8.7889-0.16177-18.892 18.7-28.469 26.466-7.1157 5.7696 5.1911-3.9999 6.248-5.1871 3.9562-4.4441 9.0453 7.751 13.852 11.258 2.7413 2.0005 18.018-8.0252 23.459-8.9595 0.60806-0.1044 1.2182-0.19647 1.8272-0.29471 4.7778-0.77063-8.274-9.8615-9.1951-10.61-6.1854-5.0257-11.915-5.7114-7.7215-12.673z"/>
  </g>
 </g>
</svg>
